<svg width="100" height="28" viewBox="0 0 100 28" fill="none" xmlns="http://www.w3.org/2000/svg">
<g clip-path="url(#clip0_163_7016)">
<path d="M99.0447 15.8457H45.5412C45.416 15.8455 45.292 15.8699 45.1762 15.9176C45.0604 15.9654 44.9551 16.0354 44.8664 16.1238C44.7777 16.2122 44.7073 16.3172 44.6592 16.4328C44.611 16.5484 44.5862 16.6724 44.5859 16.7976V17.3919C44.5862 17.5171 44.611 17.641 44.6592 17.7567C44.7073 17.8723 44.7777 17.9773 44.8664 18.0657C44.9551 18.1541 45.0604 18.2241 45.1762 18.2718C45.292 18.3196 45.416 18.344 45.5412 18.3438H99.0447C99.1699 18.344 99.294 18.3196 99.4098 18.2718C99.5255 18.2241 99.6308 18.1541 99.7195 18.0657C99.8082 17.9773 99.8786 17.8723 99.9268 17.7567C99.9749 17.641 99.9998 17.5171 100 17.3919V16.7976C99.9998 16.6724 99.9749 16.5484 99.9268 16.4328C99.8786 16.3172 99.8082 16.2122 99.7195 16.1238C99.6308 16.0354 99.5255 15.9654 99.4098 15.9176C99.294 15.8699 99.1699 15.8455 99.0447 15.8457ZM58.7757 17.4306H53.8191C53.7349 17.4333 53.6526 17.4058 53.5869 17.3532C53.5211 17.3006 53.4763 17.2263 53.4605 17.1436C53.4536 17.0955 53.4572 17.0465 53.471 17C53.4848 16.9534 53.5085 16.9104 53.5404 16.8738C53.5724 16.8373 53.6119 16.8081 53.6562 16.7883C53.7006 16.7684 53.7487 16.7584 53.7972 16.7589H58.7488C58.8329 16.7562 58.9153 16.7836 58.981 16.8363C59.0467 16.8889 59.0915 16.9632 59.1073 17.0459C59.1142 17.0936 59.1107 17.1421 59.0972 17.1883C59.0838 17.2345 59.0605 17.2773 59.0291 17.3137C58.9977 17.3502 58.9588 17.3795 58.9151 17.3996C58.8714 17.4198 58.8238 17.4303 58.7757 17.4306ZM74.7843 17.4306H69.8269C69.7428 17.4332 69.6606 17.4058 69.595 17.3532C69.5294 17.3005 69.4848 17.2262 69.4692 17.1436C69.4622 17.0955 69.4658 17.0465 69.4796 17C69.4934 16.9534 69.5171 16.9104 69.5491 16.8738C69.581 16.8373 69.6205 16.8081 69.6649 16.7883C69.7092 16.7684 69.7573 16.7584 69.8058 16.7589H74.7624C74.8465 16.7566 74.9287 16.7841 74.9943 16.8367C75.06 16.8892 75.1049 16.9634 75.121 17.0459C75.1279 17.094 75.1244 17.143 75.1106 17.1895C75.0968 17.2361 75.0731 17.2791 75.0411 17.3157C75.0091 17.3522 74.9696 17.3814 74.9253 17.4012C74.881 17.4211 74.8329 17.4311 74.7843 17.4306ZM90.7921 17.4306H85.8355C85.7514 17.4331 85.6691 17.4056 85.6034 17.353C85.5377 17.3004 85.4929 17.2262 85.4769 17.1436C85.47 17.0955 85.4736 17.0465 85.4874 17C85.5011 16.9534 85.5249 16.9104 85.5568 16.8738C85.5888 16.8373 85.6283 16.8081 85.6726 16.7883C85.717 16.7684 85.765 16.7584 85.8136 16.7589H90.7702C90.8543 16.7566 90.9365 16.7841 91.0021 16.8367C91.0678 16.8892 91.1127 16.9634 91.1288 17.0459C91.1357 17.094 91.1321 17.143 91.1183 17.1895C91.1046 17.2361 91.0809 17.2791 91.0489 17.3157C91.0169 17.3522 90.9774 17.3814 90.9331 17.4012C90.8887 17.4211 90.8407 17.4311 90.7921 17.4306Z" fill="white"/>
<path d="M13.0407 1.0113L13.4615 12.405C13.4639 12.486 13.4496 12.5665 13.4195 12.6417C13.3894 12.7168 13.3441 12.785 13.2865 12.8419C13.232 12.8983 13.1666 12.943 13.0942 12.9731C13.0218 13.0032 12.944 13.0181 12.8656 13.0169H11.6031C11.5235 13.0176 11.4446 13.0025 11.3709 12.9725C11.2972 12.9424 11.2302 12.898 11.1739 12.8419C11.1142 12.7861 11.0669 12.7184 11.0353 12.6431C11.0037 12.5678 10.9884 12.4867 10.9904 12.405C10.8854 9.12643 10.8271 7.44056 10.8153 7.34742C10.7917 7.03207 10.8091 6.21537 10.8675 4.89731H10.7656L7.808 10.1998C7.58356 10.596 7.27999 10.7943 6.89731 10.7949H6.56569C6.19199 10.7949 5.88871 10.5966 5.65585 10.1998L2.68053 4.89731H2.57448C2.62161 6.14579 2.64518 6.96249 2.64518 7.34742L2.47011 12.405C2.46337 12.5706 2.39278 12.7272 2.27316 12.8419C2.21671 12.8979 2.14972 12.9423 2.07604 12.9723C2.00237 13.0024 1.92347 13.0175 1.84391 13.0169H0.581399C0.502987 13.0182 0.425149 13.0034 0.352743 12.9732C0.280336 12.9431 0.214915 12.8984 0.160562 12.8419C0.102761 12.7858 0.0583616 12.7174 0.0306729 12.6417C0.00298415 12.5661 -0.00728031 12.4852 0.000644262 12.405L0.404647 1.0113C0.404287 0.93222 0.420589 0.853946 0.452493 0.781582C0.484397 0.709218 0.531187 0.644386 0.589815 0.591309C0.709396 0.476709 0.86946 0.414076 1.03506 0.417083H2.11998C2.31349 0.422768 2.50143 0.483178 2.66201 0.591309C2.83276 0.691573 2.97233 0.837259 3.06518 1.01215L6.72224 7.36088L10.3802 1.0113C10.4833 0.838272 10.628 0.693645 10.801 0.590467C10.9564 0.484632 11.1383 0.424292 11.3262 0.416241H12.4288C12.5098 0.414014 12.5903 0.428315 12.6656 0.45827C12.7408 0.488226 12.8092 0.533207 12.8665 0.590467C12.9226 0.645105 12.9669 0.710598 12.9969 0.782951C13.0268 0.855305 13.0417 0.933002 13.0407 1.0113Z" fill="white"/>
<path d="M28.3185 6.75272C28.3185 8.642 27.6946 10.1935 26.4466 11.4072C25.1987 12.6209 23.6994 13.2277 21.9487 13.2277C20.1992 13.2277 18.6999 12.6209 17.4508 11.4072C16.2018 10.1935 15.5776 8.642 15.5781 6.75272C15.5781 4.93246 16.1732 3.38631 17.3633 2.11426C18.5534 0.842214 20.0819 0.206471 21.9487 0.207032C23.8391 0.207032 25.3676 0.842775 26.5342 2.11426C27.7237 3.38687 28.3185 4.93302 28.3185 6.75272ZM25.8162 6.75272C25.8162 5.48123 25.4428 4.45439 24.696 3.6722C24.3533 3.28343 23.93 2.97399 23.4555 2.76541C22.9811 2.55683 22.4669 2.45411 21.9487 2.4644C20.8641 2.4644 19.9425 2.867 19.1839 3.6722C18.4482 4.45439 18.0807 5.48123 18.0813 6.75272C18.0813 7.97764 18.4544 8.98764 19.2007 9.78274C19.9588 10.5756 20.8748 10.9723 21.9487 10.9729C23.0227 10.9734 23.9385 10.5767 24.696 9.78274C25.4428 8.98764 25.8162 7.97764 25.8162 6.75272Z" fill="#DC2326"/>
<path d="M30.1033 0.417372H39.6235C39.7018 0.416113 39.7796 0.430923 39.8519 0.460889C39.9243 0.490855 39.9898 0.535341 40.0443 0.591599C40.1007 0.646043 40.1454 0.711482 40.1755 0.783867C40.2056 0.856252 40.2205 0.934045 40.2194 1.01244V2.05863C40.22 2.1382 40.2048 2.21709 40.1748 2.29077C40.1447 2.36444 40.1004 2.43144 40.0443 2.48789C39.9911 2.54644 39.9261 2.59306 39.8535 2.62469C39.781 2.65631 39.7026 2.67222 39.6235 2.67137H36.0885V12.4053C36.0909 12.4863 36.0765 12.5668 36.0464 12.642C36.0163 12.7171 35.971 12.7853 35.9134 12.8421C35.859 12.8987 35.7936 12.9434 35.7212 12.9735C35.6488 13.0036 35.571 13.0185 35.4925 13.0172H34.23C34.1516 13.0184 34.0738 13.0035 34.0014 12.9734C33.929 12.9433 33.8636 12.8986 33.8092 12.8421C33.7516 12.7853 33.7063 12.7171 33.6762 12.642C33.646 12.5668 33.6317 12.4863 33.6341 12.4053V2.67474H30.0991C30.0174 2.67664 29.9361 2.66129 29.8607 2.62967C29.7853 2.59805 29.7174 2.55089 29.6614 2.49125C29.5485 2.37703 29.4855 2.22263 29.4864 2.062V1.01159C29.4854 0.933231 29.5004 0.855497 29.5306 0.783141C29.5607 0.710784 29.6052 0.645323 29.6614 0.590757C29.7193 0.533124 29.7884 0.487994 29.8644 0.458168C29.9404 0.428342 30.0217 0.414456 30.1033 0.417372Z" fill="white"/>
<path d="M53.8685 6.75272C53.8685 8.642 53.2442 10.1935 51.9957 11.4072C50.7473 12.6209 49.2485 13.2277 47.4995 13.2277C45.7494 13.2277 44.2501 12.6209 43.0016 11.4072C41.7531 10.1935 41.1289 8.642 41.1289 6.75272C41.1289 4.93246 41.724 3.38631 42.9141 2.11426C44.1042 0.842214 45.6327 0.206471 47.4995 0.207032C49.3888 0.207032 50.9173 0.842775 52.085 2.11426C53.274 3.38687 53.8685 4.93302 53.8685 6.75272ZM51.3653 6.75272C51.3653 5.48123 50.9922 4.45439 50.2459 3.6722C49.903 3.2835 49.4795 2.97412 49.0049 2.76555C48.5304 2.55698 48.0161 2.45421 47.4978 2.4644C46.4132 2.4644 45.4916 2.867 44.733 3.6722C43.9979 4.45439 43.6304 5.48123 43.6304 6.75272C43.6304 7.97764 44.0038 8.98764 44.7506 9.78274C45.5087 10.5756 46.4244 10.9723 47.4978 10.9729C48.5713 10.9734 49.4884 10.5759 50.2493 9.78022C50.9939 8.9868 51.3665 7.97764 51.367 6.75272H51.3653Z" fill="#DC2326"/>
<path d="M63.8272 8.38014L67.0475 12.2518C67.1348 12.3548 67.1841 12.4847 67.1872 12.6196C67.1872 12.8884 67.0239 13.0225 66.6973 13.022H65.7521C65.2505 13.022 64.8858 12.9726 64.658 12.8738C64.4301 12.7751 64.1939 12.5562 63.9493 12.2173L61.0968 8.76647H58.9447V12.4412C58.9461 12.5183 58.9312 12.5948 58.901 12.6657C58.8709 12.7366 58.8261 12.8004 58.7696 12.8528C58.714 12.9072 58.6483 12.9502 58.576 12.979C58.5038 13.0079 58.4266 13.0222 58.3488 13.0211H57.0863C57.0084 13.0225 56.9311 13.0083 56.8588 12.9794C56.7866 12.9505 56.7208 12.9075 56.6654 12.8528C56.6088 12.8005 56.5639 12.7368 56.5337 12.6658C56.5035 12.5949 56.4887 12.5183 56.4904 12.4412V1.01214C56.4892 0.933745 56.5041 0.855952 56.5343 0.783567C56.5644 0.711181 56.609 0.645743 56.6654 0.591298C56.7199 0.535 56.7854 0.490488 56.8578 0.460519C56.9302 0.43055 57.0079 0.415762 57.0863 0.417072H61.5135C62.9606 0.417072 64.133 0.801997 65.0308 1.57185C65.9286 2.33048 66.3775 3.34553 66.3775 4.61702C66.3875 5.41228 66.1524 6.19135 65.7042 6.8483C65.2346 7.52488 64.5842 8.05572 63.8272 8.38014ZM58.9455 2.67528V6.50742H61.7979C62.4393 6.50742 62.9496 6.33908 63.3289 6.00241C63.7083 5.66574 63.8979 5.20507 63.8979 4.62039C63.8979 4.0256 63.7083 3.55315 63.3289 3.20301C62.9496 2.85287 62.4393 2.67781 61.7979 2.67781L58.9455 2.67528Z" fill="white"/>
<path d="M72.0701 1.02896V12.4218C72.0694 12.5795 72.0065 12.7304 71.8951 12.8419C71.7836 12.9533 71.6327 13.0162 71.475 13.0169H70.2125C70.0549 13.0162 69.9039 12.9533 69.7925 12.8419C69.681 12.7304 69.6181 12.5795 69.6175 12.4218V1.02896C69.615 0.947889 69.6292 0.867168 69.6593 0.791856C69.6895 0.716544 69.7348 0.648264 69.7925 0.591293C69.8471 0.535034 69.9125 0.490549 69.9849 0.460583C70.0573 0.430617 70.135 0.415807 70.2134 0.417066H71.4759C71.5542 0.415807 71.632 0.430617 71.7044 0.460583C71.7767 0.490549 71.8422 0.535034 71.8967 0.591293C71.9542 0.648408 71.9992 0.716753 72.029 0.792058C72.0589 0.867363 72.0728 0.94801 72.0701 1.02896Z" fill="white"/>
<path d="M84.1623 0.416977H85.4248C85.5057 0.41475 85.5863 0.429051 85.6615 0.459006C85.7368 0.488962 85.8051 0.533943 85.8624 0.591203C85.9187 0.645769 85.9632 0.71123 85.9933 0.783587C86.0234 0.855944 86.0384 0.933677 86.0375 1.01204V12.4049C86.0393 12.4859 86.0248 12.5663 85.9946 12.6414C85.9644 12.7166 85.9194 12.7848 85.8621 12.842C85.8048 12.8992 85.7365 12.9442 85.6613 12.9742C85.5862 13.0043 85.5057 13.0188 85.4248 13.0168H84.1446C84.0104 13.0249 83.8766 12.9948 83.7589 12.9298C83.6412 12.8648 83.5443 12.7677 83.4797 12.6499C83.386 12.5679 81.4958 9.92535 77.8093 4.72213H77.7041C77.7737 5.45719 77.8087 6.2739 77.8093 7.17224V12.4049C77.8112 12.4859 77.7966 12.5663 77.7664 12.6414C77.7363 12.7166 77.6912 12.7848 77.6339 12.842C77.5766 12.8992 77.5083 12.9442 77.4331 12.9742C77.358 13.0043 77.2775 13.0188 77.1966 13.0168H75.9341C75.8556 13.0181 75.7778 13.0032 75.7054 12.9731C75.633 12.943 75.5676 12.8983 75.5132 12.8418C75.4556 12.7849 75.4103 12.7167 75.3802 12.6416C75.3501 12.5664 75.3357 12.4859 75.3381 12.4049V1.0112C75.337 0.932808 75.3519 0.855015 75.3821 0.78263C75.4122 0.710244 75.4568 0.644806 75.5132 0.590362C75.5677 0.534103 75.6332 0.489618 75.7056 0.459652C75.778 0.429686 75.8557 0.414875 75.9341 0.416135H77.2117C77.3515 0.41365 77.4893 0.449922 77.6098 0.520932C77.7303 0.591943 77.8288 0.69492 77.8943 0.818455L83.5823 8.71082H83.6665C83.5958 7.24126 83.5607 6.48881 83.5613 6.45345V1.0112C83.5601 0.932808 83.5751 0.855015 83.6052 0.78263C83.6353 0.710244 83.68 0.644806 83.7364 0.590362C83.7915 0.533626 83.8579 0.48893 83.9312 0.45909C84.0045 0.429249 84.0831 0.41491 84.1623 0.416977Z" fill="white"/>
<path d="M94.7337 6.17449H99.389C99.4699 6.17265 99.5504 6.18724 99.6255 6.21739C99.7007 6.24754 99.7689 6.29262 99.8261 6.3499C99.8833 6.40718 99.9283 6.47548 99.9583 6.55065C99.9884 6.62582 100.003 6.7063 100.001 6.78723V10.7953C100.001 11.1101 99.9019 11.3491 99.7038 11.5124C98.3504 12.6559 96.7753 13.2277 94.9786 13.2277C93.0529 13.2277 91.4719 12.6105 90.2358 11.376C89.0103 10.1416 88.3979 8.58981 88.3984 6.72074C88.3984 4.8079 88.9876 3.24463 90.166 2.03094C91.3443 0.817244 92.8902 0.209276 94.8036 0.207031C96.6586 0.207031 98.1694 0.824258 99.336 2.05871C99.6278 2.35105 99.651 2.63161 99.4058 2.90038L98.7232 3.65789C98.6712 3.71909 98.6068 3.76863 98.5342 3.80329C98.4617 3.83794 98.3827 3.85695 98.3024 3.85905C98.2243 3.86303 98.1462 3.85004 98.0735 3.82098C98.0009 3.79192 97.9354 3.74748 97.8816 3.69072C96.9838 2.87429 95.9572 2.4658 94.8019 2.46524C94.2805 2.45706 93.7633 2.55907 93.2841 2.76459C92.8049 2.97012 92.3744 3.27452 92.021 3.65789C91.2618 4.45187 90.8825 5.46693 90.8831 6.70306C90.8831 7.92854 91.2683 8.95538 92.0387 9.78358C92.8197 10.5882 93.788 10.9905 94.9433 10.9905C95.8774 10.9949 96.7896 10.7074 97.5525 10.1682V8.4327H94.7354C94.5778 8.43204 94.4268 8.36913 94.3154 8.25768C94.2039 8.14622 94.141 7.99525 94.1403 7.83764V6.78723C94.1378 6.70616 94.1521 6.62543 94.1822 6.55012C94.2123 6.47481 94.2577 6.40653 94.3154 6.34956C94.3695 6.29342 94.4345 6.24893 94.5065 6.21883C94.5784 6.18872 94.6557 6.17364 94.7337 6.17449Z" fill="white"/>
<path d="M48.8417 20.7775H49.4595C49.499 20.7762 49.5383 20.7831 49.575 20.7975C49.6118 20.812 49.6452 20.8338 49.6733 20.8617C49.7006 20.8885 49.7221 20.9206 49.7366 20.9561C49.751 20.9916 49.7581 21.0296 49.7574 21.0679V26.6515C49.7583 26.6912 49.7512 26.7306 49.7365 26.7674C49.7218 26.8042 49.6998 26.8377 49.6718 26.8657C49.6438 26.8938 49.6104 26.9159 49.5736 26.9308C49.5368 26.9456 49.4974 26.9528 49.4578 26.952H48.8307C48.765 26.9556 48.6996 26.9407 48.642 26.9088C48.5843 26.877 48.5369 26.8295 48.505 26.7719C48.4596 26.7315 47.5337 25.4362 45.7275 22.8859H45.6761C45.7109 23.2461 45.7281 23.6465 45.7275 24.0869V26.6515C45.7287 26.6912 45.7217 26.7307 45.7071 26.7677C45.6924 26.8046 45.6704 26.8381 45.6424 26.8663C45.6143 26.8944 45.5808 26.9165 45.5439 26.9312C45.5071 26.946 45.4676 26.9531 45.4279 26.952H44.8101C44.7718 26.9527 44.7338 26.9456 44.6983 26.9311C44.6628 26.9167 44.6307 26.8951 44.6039 26.8678C44.576 26.8397 44.5541 26.8061 44.5396 26.7692C44.5252 26.7323 44.5184 26.6928 44.5197 26.6532V21.0696C44.5199 20.9922 44.5508 20.918 44.6055 20.8633C44.6602 20.8086 44.7344 20.7777 44.8118 20.7775H45.438C45.5069 20.776 45.5749 20.7937 45.6343 20.8287C45.6938 20.8636 45.7424 20.9144 45.7746 20.9753L48.5622 24.847H48.6052C48.5715 24.1265 48.5544 23.7576 48.5538 23.7402V21.0696C48.5541 20.9922 48.5849 20.918 48.6396 20.8633C48.6943 20.8086 48.7685 20.7777 48.8459 20.7775H48.8417Z" fill="white"/>
<path d="M55.6426 21.0801V26.6638C55.6424 26.741 55.6117 26.815 55.5571 26.8697C55.5026 26.9244 55.4287 26.9554 55.3514 26.9558H54.7336C54.6562 26.9556 54.5821 26.9248 54.5274 26.87C54.4726 26.8153 54.4418 26.7411 54.4416 26.6638V21.0801C54.4402 21.0405 54.447 21.001 54.4615 20.9641C54.476 20.9272 54.4978 20.8936 54.5257 20.8655C54.5526 20.8382 54.5847 20.8166 54.6202 20.8022C54.6556 20.7877 54.6937 20.7806 54.7319 20.7813H55.3497C55.3879 20.7806 55.4258 20.7876 55.4611 20.8021C55.4965 20.8166 55.5284 20.8382 55.5551 20.8655C55.5836 20.8933 55.6061 20.9268 55.6211 20.9637C55.6362 21.0006 55.6435 21.0402 55.6426 21.0801Z" fill="white"/>
<path d="M63.002 23.5996H65.2838C65.3234 23.5983 65.3629 23.6051 65.3998 23.6196C65.4367 23.634 65.4703 23.6559 65.4984 23.6838C65.5262 23.7121 65.5479 23.7456 65.5624 23.7825C65.5768 23.8194 65.5837 23.8588 65.5826 23.8984V25.8629C65.5869 25.9287 65.576 25.9947 65.5505 26.0555C65.5251 26.1164 65.486 26.1706 65.4362 26.2139C64.7943 26.7666 63.9728 27.0662 63.1258 27.0564C62.182 27.0564 61.4071 26.7534 60.8011 26.1474C60.1951 25.5414 59.8949 24.7808 59.9005 23.8656C59.9005 22.928 60.1892 22.1618 60.7665 21.567C61.3439 20.9722 62.1014 20.6748 63.0391 20.6748C63.9481 20.6748 64.6885 20.9778 65.2602 21.5838C65.4033 21.7269 65.4148 21.8641 65.2948 21.9954L64.9581 22.3649C64.9324 22.3945 64.901 22.4186 64.8656 22.4355C64.8303 22.4524 64.7919 22.4619 64.7527 22.4634C64.7143 22.4649 64.676 22.4582 64.6405 22.4437C64.6049 22.4291 64.5729 22.4072 64.5465 22.3792C64.1396 21.9921 63.599 21.7771 63.0374 21.7791C62.7817 21.7747 62.528 21.8245 62.2929 21.925C62.0578 22.0255 61.8465 22.1745 61.673 22.3624C61.3016 22.7512 61.1158 23.2486 61.1158 23.8546C61.0997 24.4125 61.3031 24.9543 61.6823 25.3638C61.8654 25.5557 62.0866 25.7073 62.3317 25.8087C62.5768 25.9102 62.8404 25.9593 63.1056 25.9529C63.5633 25.9546 64.0101 25.8137 64.3841 25.5498V24.7064H63.002C62.9248 24.7058 62.8509 24.6748 62.7962 24.6201C62.7416 24.5655 62.7106 24.4916 62.71 24.4144V23.9001C62.7085 23.8605 62.7152 23.8209 62.7297 23.784C62.7442 23.7471 62.7661 23.7135 62.7941 23.6855C62.8209 23.6575 62.8532 23.6354 62.889 23.6206C62.9248 23.6058 62.9633 23.5987 63.002 23.5996Z" fill="white"/>
<path d="M70.2932 20.7774H74.2819C74.3206 20.777 74.359 20.7849 74.3946 20.8004C74.4301 20.8159 74.462 20.8388 74.4881 20.8674C74.5426 20.9238 74.5728 20.9994 74.5723 21.0778V21.5921C74.572 21.6679 74.5417 21.7405 74.4881 21.7941C74.462 21.8227 74.4301 21.8456 74.3946 21.8611C74.359 21.8766 74.3206 21.8845 74.2819 21.8842H71.2064V23.2392H73.8913C73.9704 23.2412 74.0457 23.2734 74.1017 23.3294C74.1576 23.3853 74.1899 23.4606 74.1918 23.5397V24.054C74.1921 24.0928 74.1843 24.1312 74.1687 24.1667C74.1532 24.2022 74.1304 24.2341 74.1018 24.2602C74.074 24.2874 74.041 24.3088 74.0049 24.3233C73.9688 24.3377 73.9302 24.3449 73.8913 24.3444H71.2064V25.8535H74.2861C74.363 25.8548 74.4362 25.8864 74.4899 25.9414C74.5437 25.9964 74.5736 26.0703 74.5731 26.1472V26.6615C74.5731 26.7388 74.5424 26.813 74.4878 26.8677C74.4333 26.9225 74.3592 26.9533 74.2819 26.9535H70.2932C70.2159 26.9531 70.142 26.9222 70.0875 26.8675C70.0329 26.8128 70.0022 26.7387 70.002 26.6615V21.0804C70.0011 21.0019 70.0314 20.9262 70.0861 20.8699C70.112 20.8406 70.1439 20.8171 70.1796 20.8012C70.2153 20.7852 70.2541 20.7771 70.2932 20.7774Z" fill="white"/>
<path d="M82.5926 24.6802L84.1674 26.5756C84.2104 26.6259 84.2348 26.6896 84.2364 26.7557C84.2364 26.8879 84.1523 26.9535 83.9957 26.9535H83.5328C83.351 26.9635 83.1691 26.9386 82.9966 26.8803C82.855 26.8049 82.7352 26.6941 82.649 26.5588L81.2544 24.8679H80.1998V26.6691C80.2008 26.7068 80.1938 26.7443 80.1793 26.7791C80.1648 26.8139 80.1431 26.8452 80.1156 26.8711C80.0885 26.8981 80.0564 26.9194 80.021 26.9339C79.9856 26.9483 79.9476 26.9556 79.9094 26.9552H79.2916C79.2535 26.9556 79.2157 26.9483 79.1804 26.9339C79.1451 26.9194 79.1131 26.8981 79.0862 26.8711C79.0587 26.8452 79.037 26.8139 79.0225 26.7791C79.008 26.7443 79.001 26.7068 79.0021 26.6691V21.0694C79.0023 20.9922 79.033 20.9181 79.0875 20.8634C79.1421 20.8087 79.216 20.7778 79.2933 20.7773H81.4639C82.1726 20.7773 82.7472 20.9662 83.1877 21.3438C83.6282 21.7214 83.8484 22.2188 83.8484 22.8361C83.8537 23.2262 83.7381 23.6084 83.5176 23.9302C83.2864 24.2626 82.9656 24.5227 82.5926 24.6802ZM80.1998 21.8841V23.7628H81.5978C81.9117 23.7628 82.1625 23.6786 82.3485 23.5103C82.4418 23.4246 82.5151 23.3196 82.5633 23.2025C82.6114 23.0854 82.6332 22.9592 82.6271 22.8327C82.6332 22.7038 82.6114 22.575 82.5634 22.4552C82.5153 22.3354 82.442 22.2273 82.3485 22.1383C82.1625 21.97 81.9117 21.8808 81.5978 21.8808L80.1998 21.8841Z" fill="white"/>
<path d="M89.7227 21.0801V26.6638C89.7225 26.7411 89.6916 26.8153 89.6369 26.87C89.5822 26.9248 89.508 26.9556 89.4307 26.9558H88.8129C88.7356 26.9554 88.6617 26.9244 88.6071 26.8697C88.5526 26.815 88.5219 26.741 88.5216 26.6638V21.0801C88.5203 21.0405 88.5271 21.001 88.5416 20.9641C88.5561 20.9272 88.5779 20.8936 88.6058 20.8655C88.6325 20.8382 88.6645 20.8166 88.6998 20.8021C88.7351 20.7876 88.773 20.7806 88.8112 20.7813H89.429C89.4673 20.7806 89.5053 20.7877 89.5407 20.8022C89.5762 20.8166 89.6083 20.8382 89.6352 20.8655C89.6635 20.8935 89.6859 20.9269 89.7009 20.9638C89.716 21.0007 89.7234 21.0403 89.7227 21.0801Z" fill="white"/>
<path d="M97.4833 21.0353L99.9797 26.6358C99.997 26.6707 100.004 26.7097 100 26.7484C99.9964 26.7871 99.9817 26.8239 99.9578 26.8547C99.9351 26.8865 99.9049 26.9122 99.8697 26.9294C99.8346 26.9466 99.7957 26.9548 99.7567 26.9531H99.0446C98.8729 26.9531 98.7472 26.8617 98.6675 26.6787L98.1701 25.4861H95.5609L95.0635 26.6787C94.9793 26.8614 94.8573 26.9531 94.6856 26.9531H93.9735C93.9332 26.9554 93.893 26.9471 93.857 26.9289C93.8209 26.9107 93.7903 26.8834 93.7682 26.8496C93.7458 26.8173 93.7323 26.7796 93.7292 26.7405C93.7261 26.7013 93.7334 26.662 93.7505 26.6266L96.2469 21.0345C96.2689 20.9571 96.3165 20.8895 96.382 20.8427C96.4474 20.7959 96.5268 20.7727 96.6071 20.7769H97.1214C97.2021 20.7724 97.282 20.7955 97.3478 20.8425C97.4136 20.8895 97.4614 20.9575 97.4833 21.0353ZM95.9683 24.4752H97.7602L97.3747 23.4795C97.2945 23.2742 97.2145 23.0612 97.1349 22.8407C97.0552 22.6202 96.9935 22.4502 96.9497 22.3307C96.9076 22.2103 96.8798 22.1362 96.8655 22.1076L96.6854 22.5621C96.6293 22.7338 96.5171 23.0396 96.3487 23.4795C96.2309 23.8173 96.1033 24.1492 95.9658 24.4752H95.9683Z" fill="white"/>
</g>
<defs>
<clipPath id="clip0_163_7016">
<rect width="100" height="26.8494" fill="white" transform="translate(0 0.207031)"/>
</clipPath>
</defs>
</svg>
