<svg width="24" height="25" viewBox="0 0 24 25" fill="none" xmlns="http://www.w3.org/2000/svg">
<path fill-rule="evenodd" clip-rule="evenodd" d="M7.60045 2.23828H16.399C19.3871 2.23828 21.8181 4.66928 21.818 7.65721V16.4557C21.818 19.4436 19.3871 21.8746 16.399 21.8746H7.60045C4.61252 21.8746 2.18164 19.4438 2.18164 16.4557V7.65721C2.18164 4.66928 4.61252 2.23828 7.60045 2.23828ZM16.3991 20.1324C18.4265 20.1324 20.0759 18.4831 20.0759 16.4557H20.0758V7.65721C20.0758 5.62994 18.4263 3.98051 16.399 3.98051H7.60045C5.57319 3.98051 3.92387 5.62994 3.92387 7.65721V16.4557C3.92387 18.4831 5.57319 20.1325 7.60045 20.1324H16.3991ZM6.85696 12.0566C6.85696 9.2207 9.16401 6.91361 11.9998 6.91361C14.8356 6.91361 17.1427 9.2207 17.1427 12.0566C17.1427 14.8923 14.8356 17.1993 11.9998 17.1993C9.16401 17.1993 6.85696 14.8923 6.85696 12.0566ZM8.6278 12.0565C8.6278 13.9158 10.1406 15.4283 11.9998 15.4283C13.8591 15.4283 15.3718 13.9158 15.3718 12.0565C15.3718 10.197 13.8592 8.68436 11.9998 8.68436C10.1404 8.68436 8.6278 10.197 8.6278 12.0565Z" fill="#C8C6CD"/>
<mask id="mask0_163_7053" style="mask-type:luminance" maskUnits="userSpaceOnUse" x="2" y="2" width="20" height="20">
<path fill-rule="evenodd" clip-rule="evenodd" d="M7.60045 2.23828H16.399C19.3871 2.23828 21.8181 4.66928 21.818 7.65721V16.4557C21.818 19.4436 19.3871 21.8746 16.399 21.8746H7.60045C4.61252 21.8746 2.18164 19.4438 2.18164 16.4557V7.65721C2.18164 4.66928 4.61252 2.23828 7.60045 2.23828ZM16.3991 20.1324C18.4265 20.1324 20.0759 18.4831 20.0759 16.4557H20.0758V7.65721C20.0758 5.62994 18.4263 3.98051 16.399 3.98051H7.60045C5.57319 3.98051 3.92387 5.62994 3.92387 7.65721V16.4557C3.92387 18.4831 5.57319 20.1325 7.60045 20.1324H16.3991ZM6.85696 12.0566C6.85696 9.2207 9.16401 6.91361 11.9998 6.91361C14.8356 6.91361 17.1427 9.2207 17.1427 12.0566C17.1427 14.8923 14.8356 17.1993 11.9998 17.1993C9.16401 17.1993 6.85696 14.8923 6.85696 12.0566ZM8.6278 12.0565C8.6278 13.9158 10.1406 15.4283 11.9998 15.4283C13.8591 15.4283 15.3718 13.9158 15.3718 12.0565C15.3718 10.197 13.8592 8.68436 11.9998 8.68436C10.1404 8.68436 8.6278 10.197 8.6278 12.0565Z" fill="white"/>
</mask>
<g mask="url(#mask0_163_7053)">
</g>
</svg>
