<svg width="24" height="25" viewBox="0 0 24 25" fill="none" xmlns="http://www.w3.org/2000/svg">
<path fill-rule="evenodd" clip-rule="evenodd" d="M21.8189 6.20226C21.1363 6.50471 20.4039 6.70983 19.6344 6.80141C20.4201 6.33089 21.0216 5.58459 21.3066 4.69804C20.5696 5.13377 19.756 5.45016 18.8892 5.62168C18.195 4.88116 17.2077 4.41992 16.1125 4.41992C14.0115 4.41992 12.308 6.12347 12.308 8.22335C12.308 8.52116 12.3416 8.81204 12.4065 9.09019C9.24507 8.93141 6.44177 7.41677 4.56556 5.11522C4.23759 5.67613 4.05101 6.32971 4.05101 7.02738C4.05101 8.34735 4.72316 9.51201 5.74298 10.1934C5.1195 10.1726 4.5331 10.001 4.01974 9.71595V9.76347C4.01974 11.6061 5.33159 13.1439 7.07104 13.4939C6.75235 13.5796 6.41629 13.6272 6.06862 13.6272C5.82295 13.6272 5.58538 13.6028 5.35244 13.5565C5.83683 15.0688 7.24141 16.1686 8.90556 16.1987C7.60413 17.2185 5.96316 17.8246 4.18083 17.8246C3.87374 17.8246 3.57126 17.8061 3.27344 17.7725C4.95729 18.8537 6.95635 19.4841 9.10489 19.4841C16.1033 19.4841 19.9288 13.6874 19.9288 8.66026L19.916 8.16774C20.6635 7.63462 21.3101 6.9648 21.8189 6.20226Z" fill="#C8C6CD"/>
<mask id="mask0_163_7052" style="mask-type:luminance" maskUnits="userSpaceOnUse" x="3" y="4" width="19" height="16">
<path fill-rule="evenodd" clip-rule="evenodd" d="M21.8189 6.20226C21.1363 6.50471 20.4039 6.70983 19.6344 6.80141C20.4201 6.33089 21.0216 5.58459 21.3066 4.69804C20.5696 5.13377 19.756 5.45016 18.8892 5.62168C18.195 4.88116 17.2077 4.41992 16.1125 4.41992C14.0115 4.41992 12.308 6.12347 12.308 8.22335C12.308 8.52116 12.3416 8.81204 12.4065 9.09019C9.24507 8.93141 6.44177 7.41677 4.56556 5.11522C4.23759 5.67613 4.05101 6.32971 4.05101 7.02738C4.05101 8.34735 4.72316 9.51201 5.74298 10.1934C5.1195 10.1726 4.5331 10.001 4.01974 9.71595V9.76347C4.01974 11.6061 5.33159 13.1439 7.07104 13.4939C6.75235 13.5796 6.41629 13.6272 6.06862 13.6272C5.82295 13.6272 5.58538 13.6028 5.35244 13.5565C5.83683 15.0688 7.24141 16.1686 8.90556 16.1987C7.60413 17.2185 5.96316 17.8246 4.18083 17.8246C3.87374 17.8246 3.57126 17.8061 3.27344 17.7725C4.95729 18.8537 6.95635 19.4841 9.10489 19.4841C16.1033 19.4841 19.9288 13.6874 19.9288 8.66026L19.916 8.16774C20.6635 7.63462 21.3101 6.9648 21.8189 6.20226Z" fill="white"/>
</mask>
<g mask="url(#mask0_163_7052)">
</g>
</svg>
