<svg width="24" height="25" viewBox="0 0 24 25" fill="none" xmlns="http://www.w3.org/2000/svg">
<path d="M19.2 3.05664H4.8C3.81 3.05664 3 3.86664 3 4.85664V19.2566C3 20.2466 3.81 21.0566 4.8 21.0566H19.2C20.19 21.0566 21 20.2466 21 19.2566V4.85664C21 3.86664 20.19 3.05664 19.2 3.05664ZM8.4 18.3566H5.7V10.2566H8.4V18.3566ZM7.05 8.72664C6.15 8.72664 5.43 8.00664 5.43 7.10664C5.43 6.20664 6.15 5.48664 7.05 5.48664C7.95 5.48664 8.67 6.20664 8.67 7.10664C8.67 8.00664 7.95 8.72664 7.05 8.72664ZM18.3 18.3566H15.6V13.5866C15.6 12.8667 14.97 12.2366 14.25 12.2366C13.53 12.2366 12.9 12.8667 12.9 13.5866V18.3566H10.2V10.2566H12.9V11.3366C13.35 10.6166 14.34 10.0766 15.15 10.0766C16.86 10.0766 18.3 11.5166 18.3 13.2266V18.3566Z" fill="#C8C6CD"/>
</svg>
