<svg width="24" height="25" viewBox="0 0 24 25" fill="none" xmlns="http://www.w3.org/2000/svg">
<path fill-rule="evenodd" clip-rule="evenodd" d="M13.6352 20.7836V12.8224H16.3585L16.7671 9.71883H13.6352V7.73766C13.6352 6.83938 13.8885 6.22722 15.2032 6.22722L16.8774 6.22655V3.45061C16.5878 3.41371 15.594 3.3291 14.4373 3.3291C12.0219 3.3291 10.3683 4.77518 10.3683 7.43028V9.71883H7.63672V12.8224H10.3683V20.7836H13.6352Z" fill="#C8C6CD"/>
<mask id="mask0_163_7051" style="mask-type:luminance" maskUnits="userSpaceOnUse" x="7" y="3" width="10" height="18">
<path fill-rule="evenodd" clip-rule="evenodd" d="M13.6352 20.7836V12.8224H16.3585L16.7671 9.71883H13.6352V7.73766C13.6352 6.83938 13.8885 6.22722 15.2032 6.22722L16.8774 6.22655V3.45061C16.5878 3.41371 15.594 3.3291 14.4373 3.3291C12.0219 3.3291 10.3683 4.77518 10.3683 7.43028V9.71883H7.63672V12.8224H10.3683V20.7836H13.6352Z" fill="white"/>
</mask>
<g mask="url(#mask0_163_7051)">
</g>
</svg>
