<svg width="20" height="21" viewBox="0 0 20 21" fill="none" xmlns="http://www.w3.org/2000/svg">
<path d="M14.541 19.6642C13.5993 19.6642 12.6077 19.4392 11.5827 19.0059C10.5827 18.5809 9.57435 17.9976 8.59102 17.2892C7.61602 16.5726 6.67435 15.7726 5.78268 14.8976C4.89935 14.0059 4.09935 13.0642 3.39102 12.0976C2.67435 11.0976 2.09935 10.0976 1.69102 9.13089C1.25768 8.09756 1.04102 7.09756 1.04102 6.15589C1.04102 5.50589 1.15768 4.88923 1.38268 4.31423C1.61602 3.72256 1.99102 3.17256 2.49935 2.69756C3.14102 2.06423 3.87435 1.74756 4.65768 1.74756C4.98268 1.74756 5.31602 1.82256 5.59935 1.95589C5.92435 2.10589 6.19935 2.33089 6.39935 2.63089L8.33268 5.35589C8.50768 5.59756 8.64102 5.83089 8.73268 6.06423C8.84102 6.31423 8.89935 6.56423 8.89935 6.80589C8.89935 7.12256 8.80768 7.43089 8.63268 7.72256C8.50768 7.94756 8.31602 8.18923 8.07435 8.43089L7.50768 9.02256C7.51602 9.04756 7.52435 9.06423 7.53268 9.08089C7.63268 9.25589 7.83268 9.55589 8.21602 10.0059C8.62435 10.4726 9.00768 10.8976 9.39102 11.2892C9.88268 11.7726 10.291 12.1559 10.6743 12.4726C11.1494 12.8726 11.4577 13.0726 11.641 13.1642L11.6243 13.2059L12.2327 12.6059C12.491 12.3476 12.741 12.1559 12.9827 12.0309C13.441 11.7476 14.0244 11.6976 14.6077 11.9392C14.8244 12.0309 15.0577 12.1559 15.3077 12.3309L18.0744 14.2976C18.3827 14.5059 18.6077 14.7726 18.741 15.0892C18.866 15.4059 18.9243 15.6976 18.9243 15.9892C18.9243 16.3892 18.8327 16.7892 18.6577 17.1642C18.4827 17.5392 18.266 17.8642 17.991 18.1642C17.516 18.6892 16.9993 19.0642 16.3994 19.3059C15.8244 19.5392 15.1994 19.6642 14.541 19.6642ZM4.65768 2.99756C4.19935 2.99756 3.77435 3.19756 3.36602 3.59756C2.98268 3.95589 2.71602 4.34756 2.54935 4.77256C2.37435 5.20589 2.29102 5.66423 2.29102 6.15589C2.29102 6.93089 2.47435 7.77256 2.84102 8.63923C3.21602 9.52256 3.74102 10.4392 4.40768 11.3559C5.07435 12.2726 5.83268 13.1642 6.66602 14.0059C7.49935 14.8309 8.39935 15.5976 9.32435 16.2726C10.2243 16.9309 11.1493 17.4642 12.066 17.8476C13.491 18.4559 14.8244 18.5976 15.9243 18.1392C16.3493 17.9642 16.7243 17.6976 17.066 17.3142C17.2577 17.1059 17.4077 16.8809 17.5327 16.6142C17.6327 16.4059 17.6827 16.1892 17.6827 15.9726C17.6827 15.8392 17.6577 15.7059 17.591 15.5559C17.566 15.5059 17.516 15.4142 17.3577 15.3059L14.591 13.3392C14.4243 13.2226 14.2743 13.1392 14.1327 13.0809C13.9493 13.0059 13.8743 12.9309 13.591 13.1059C13.4243 13.1892 13.2743 13.3142 13.1077 13.4809L12.4743 14.1059C12.1494 14.4226 11.6494 14.4976 11.266 14.3559L11.041 14.2559C10.6993 14.0726 10.2993 13.7892 9.85768 13.4142C9.45768 13.0726 9.02435 12.6726 8.49935 12.1559C8.09102 11.7392 7.68268 11.2976 7.25768 10.8059C6.86602 10.3476 6.58268 9.95589 6.40768 9.63089L6.30768 9.38089C6.25768 9.18922 6.24102 9.08089 6.24102 8.96422C6.24102 8.66423 6.34935 8.39756 6.55768 8.18922L7.18268 7.53923C7.34935 7.37256 7.47435 7.21422 7.55768 7.07256C7.62435 6.96422 7.64935 6.87256 7.64935 6.78923C7.64935 6.72256 7.62435 6.62256 7.58268 6.52256C7.52435 6.38923 7.43268 6.23922 7.31602 6.08089L5.38268 3.34756C5.29935 3.23089 5.19935 3.14756 5.07435 3.08923C4.94102 3.03089 4.79935 2.99756 4.65768 2.99756ZM11.6243 13.2142L11.491 13.7809L11.716 13.1976C11.6743 13.1892 11.641 13.1976 11.6243 13.2142Z" fill="#B3B3B3"/>
</svg>
