<svg width="20" height="21" viewBox="0 0 20 21" fill="none" xmlns="http://www.w3.org/2000/svg">
<path d="M10.0004 12.5144C8.22539 12.5144 6.77539 11.0728 6.77539 9.28942C6.77539 7.50609 8.22539 6.07275 10.0004 6.07275C11.7754 6.07275 13.2254 7.51442 13.2254 9.29775C13.2254 11.0811 11.7754 12.5144 10.0004 12.5144ZM10.0004 7.32275C8.91706 7.32275 8.02539 8.20609 8.02539 9.29775C8.02539 10.3894 8.90872 11.2728 10.0004 11.2728C11.0921 11.2728 11.9754 10.3894 11.9754 9.29775C11.9754 8.20609 11.0837 7.32275 10.0004 7.32275Z" fill="#B3B3B3"/>
<path d="M9.99941 19.6726C8.76608 19.6726 7.52441 19.2059 6.55775 18.2809C4.09941 15.9142 1.38275 12.1392 2.40775 7.64756C3.33275 3.57256 6.89108 1.74756 9.99941 1.74756C9.99941 1.74756 9.99942 1.74756 10.0077 1.74756C13.1161 1.74756 16.6744 3.57256 17.5994 7.65589C18.6161 12.1476 15.8994 15.9142 13.4411 18.2809C12.4744 19.2059 11.2327 19.6726 9.99941 19.6726ZM9.99941 2.99756C7.57441 2.99756 4.45775 4.28922 3.63275 7.92256C2.73275 11.8476 5.19941 15.2309 7.43275 17.3726C8.87441 18.7642 11.1327 18.7642 12.5744 17.3726C14.7994 15.2309 17.2661 11.8476 16.3827 7.92256C15.5494 4.28922 12.4244 2.99756 9.99941 2.99756Z" fill="#B3B3B3"/>
</svg>
