<svg width="16" height="17" viewBox="0 0 16 17" fill="none" xmlns="http://www.w3.org/2000/svg">
<path d="M8.00065 2.03955C6.25398 2.03955 4.83398 3.45955 4.83398 5.20622C4.83398 6.91955 6.17398 8.30622 7.92065 8.36622C7.97398 8.35955 8.02732 8.35955 8.06732 8.36622C8.08065 8.36622 8.08732 8.36622 8.10065 8.36622C8.10732 8.36622 8.10732 8.36622 8.11398 8.36622C9.82065 8.30622 11.1607 6.91955 11.1673 5.20622C11.1673 3.45955 9.74732 2.03955 8.00065 2.03955Z" fill="#DAD8D8"/>
<path d="M11.3866 10.1395C9.52664 8.89947 6.49331 8.89947 4.61997 10.1395C3.77331 10.7061 3.30664 11.4728 3.30664 12.2928C3.30664 13.1128 3.77331 13.8728 4.61331 14.4328C5.54664 15.0595 6.77331 15.3728 7.99997 15.3728C9.22664 15.3728 10.4533 15.0595 11.3866 14.4328C12.2266 13.8661 12.6933 13.1061 12.6933 12.2795C12.6866 11.4595 12.2266 10.6995 11.3866 10.1395Z" fill="#DAD8D8"/>
</svg>
