<svg width="20" height="21" viewBox="0 0 20 21" fill="none" xmlns="http://www.w3.org/2000/svg">
<path d="M12.0007 17.9979H8.00065C4.34232 17.9979 2.70898 16.3645 2.70898 12.7062V8.70622C2.70898 5.04788 4.34232 3.41455 8.00065 3.41455H12.0007C15.659 3.41455 17.2923 5.04788 17.2923 8.70622V12.7062C17.2923 16.3645 15.659 17.9979 12.0007 17.9979ZM8.00065 4.66455C5.01732 4.66455 3.95898 5.72288 3.95898 8.70622V12.7062C3.95898 15.6896 5.01732 16.7479 8.00065 16.7479H12.0007C14.984 16.7479 16.0423 15.6896 16.0423 12.7062V8.70622C16.0423 5.72288 14.984 4.66455 12.0007 4.66455H8.00065Z" fill="#B3B3B3"/>
<path d="M11.2507 15.4979H8.75065C6.33398 15.4979 5.20898 14.3729 5.20898 11.9562V9.45622C5.20898 7.03955 6.33398 5.91455 8.75065 5.91455H11.2507C13.6673 5.91455 14.7923 7.03955 14.7923 9.45622V11.9562C14.7923 14.3729 13.6673 15.4979 11.2507 15.4979ZM8.75065 7.16455C7.01732 7.16455 6.45898 7.72288 6.45898 9.45622V11.9562C6.45898 13.6896 7.01732 14.2479 8.75065 14.2479H11.2507C12.984 14.2479 13.5423 13.6896 13.5423 11.9562V9.45622C13.5423 7.72288 12.984 7.16455 11.2507 7.16455H8.75065Z" fill="#B3B3B3"/>
<path d="M6.67578 4.66423C6.32578 4.66423 6.05078 4.38089 6.05078 4.03923V2.37256C6.05078 2.03089 6.33411 1.74756 6.67578 1.74756C7.01745 1.74756 7.30078 2.03089 7.30078 2.37256V4.03923C7.30078 4.38089 7.01745 4.66423 6.67578 4.66423Z" fill="#B3B3B3"/>
<path d="M10 4.66423C9.65833 4.66423 9.375 4.38089 9.375 4.03923V2.37256C9.375 2.03089 9.65833 1.74756 10 1.74756C10.3417 1.74756 10.625 2.03089 10.625 2.37256V4.03923C10.625 4.38089 10.3417 4.66423 10 4.66423Z" fill="#B3B3B3"/>
<path d="M13.334 4.66423C12.9923 4.66423 12.709 4.38089 12.709 4.03923V2.37256C12.709 2.03089 12.9923 1.74756 13.334 1.74756C13.6757 1.74756 13.959 2.03089 13.959 2.37256V4.03923C13.959 4.38089 13.6757 4.66423 13.334 4.66423Z" fill="#B3B3B3"/>
<path d="M18.3327 7.99756H16.666C16.3243 7.99756 16.041 7.71423 16.041 7.37256C16.041 7.03089 16.3243 6.74756 16.666 6.74756H18.3327C18.6743 6.74756 18.9577 7.03089 18.9577 7.37256C18.9577 7.71423 18.6827 7.99756 18.3327 7.99756Z" fill="#B3B3B3"/>
<path d="M18.3327 11.3311H16.666C16.3243 11.3311 16.041 11.0477 16.041 10.7061C16.041 10.3644 16.3243 10.0811 16.666 10.0811H18.3327C18.6743 10.0811 18.9577 10.3644 18.9577 10.7061C18.9577 11.0477 18.6827 11.3311 18.3327 11.3311Z" fill="#B3B3B3"/>
<path d="M18.3327 14.6646H16.666C16.3243 14.6646 16.041 14.3812 16.041 14.0396C16.041 13.6979 16.3243 13.4146 16.666 13.4146H18.3327C18.6743 13.4146 18.9577 13.6979 18.9577 14.0396C18.9577 14.3812 18.6827 14.6646 18.3327 14.6646Z" fill="#B3B3B3"/>
<path d="M13.334 19.6642C12.9923 19.6642 12.709 19.3809 12.709 19.0392V17.3726C12.709 17.0309 12.9923 16.7476 13.334 16.7476C13.6757 16.7476 13.959 17.0309 13.959 17.3726V19.0392C13.959 19.3809 13.6757 19.6642 13.334 19.6642Z" fill="#B3B3B3"/>
<path d="M10.0078 19.6642C9.66615 19.6642 9.38281 19.3809 9.38281 19.0392V17.3726C9.38281 17.0309 9.66615 16.7476 10.0078 16.7476C10.3495 16.7476 10.6328 17.0309 10.6328 17.3726V19.0392C10.6328 19.3809 10.3495 19.6642 10.0078 19.6642Z" fill="#B3B3B3"/>
<path d="M6.67578 19.6642C6.33411 19.6642 6.05078 19.3809 6.05078 19.0392V17.3726C6.05078 17.0309 6.33411 16.7476 6.67578 16.7476C7.01745 16.7476 7.30078 17.0309 7.30078 17.3726V19.0392C7.30078 19.3809 7.01745 19.6642 6.67578 19.6642Z" fill="#B3B3B3"/>
<path d="M3.33268 7.99756H1.66602C1.32435 7.99756 1.04102 7.72256 1.04102 7.37256C1.04102 7.02256 1.32435 6.74756 1.66602 6.74756H3.33268C3.67435 6.74756 3.95768 7.03089 3.95768 7.37256C3.95768 7.71423 3.68268 7.99756 3.33268 7.99756Z" fill="#B3B3B3"/>
<path d="M3.33268 11.3311H1.66602C1.32435 11.3311 1.04102 11.0477 1.04102 10.7061C1.04102 10.3644 1.32435 10.0811 1.66602 10.0811H3.33268C3.67435 10.0811 3.95768 10.3644 3.95768 10.7061C3.95768 11.0477 3.68268 11.3311 3.33268 11.3311Z" fill="#B3B3B3"/>
<path d="M3.33268 14.6646H1.66602C1.32435 14.6646 1.04102 14.3812 1.04102 14.0396C1.04102 13.6979 1.32435 13.4146 1.66602 13.4146H3.33268C3.67435 13.4146 3.95768 13.6979 3.95768 14.0396C3.95768 14.3812 3.68268 14.6646 3.33268 14.6646Z" fill="#B3B3B3"/>
</svg>
