<svg width="20" height="21" viewBox="0 0 20 21" fill="none" xmlns="http://www.w3.org/2000/svg">
<path d="M12.4993 19.6642H7.49935C2.97435 19.6642 1.04102 17.7309 1.04102 13.2059V8.20589C1.04102 3.68089 2.97435 1.74756 7.49935 1.74756H12.4993C17.0243 1.74756 18.9577 3.68089 18.9577 8.20589V13.2059C18.9577 17.7309 17.0243 19.6642 12.4993 19.6642ZM7.49935 2.99756C3.65768 2.99756 2.29102 4.36423 2.29102 8.20589V13.2059C2.29102 17.0476 3.65768 18.4142 7.49935 18.4142H12.4993C16.341 18.4142 17.7077 17.0476 17.7077 13.2059V8.20589C17.7077 4.36423 16.341 2.99756 12.4993 2.99756H7.49935Z" fill="#B3B3B3"/>
<path d="M13.125 8.83105H6.875C6.53333 8.83105 6.25 8.54772 6.25 8.20605C6.25 7.86439 6.53333 7.58105 6.875 7.58105H13.125C13.4667 7.58105 13.75 7.86439 13.75 8.20605C13.75 8.54772 13.4667 8.83105 13.125 8.83105Z" fill="#B3B3B3"/>
<path d="M13.125 13.8311H6.875C6.53333 13.8311 6.25 13.5477 6.25 13.2061C6.25 12.8644 6.53333 12.5811 6.875 12.5811H13.125C13.4667 12.5811 13.75 12.8644 13.75 13.2061C13.75 13.5477 13.4667 13.8311 13.125 13.8311Z" fill="#B3B3B3"/>
</svg>
