<svg width="20" height="21" viewBox="0 0 20 21" fill="none" xmlns="http://www.w3.org/2000/svg">
<path d="M16.6671 10.4978H3.33378C3.14212 10.4978 2.96712 10.4145 2.85045 10.2645C2.73378 10.1228 2.68378 9.92279 2.72545 9.73945L3.66712 5.23945C3.97545 3.78112 4.60045 2.43945 7.07545 2.43945H12.9338C15.4088 2.43945 16.0338 3.78945 16.3421 5.23945L17.2838 9.74779C17.3254 9.93112 17.2755 10.1228 17.1588 10.2728C17.0338 10.4145 16.8588 10.4978 16.6671 10.4978ZM4.10045 9.24779H15.8921L15.1088 5.49779C14.8754 4.40612 14.6005 3.68945 12.9255 3.68945H7.07545C5.40045 3.68945 5.12545 4.40612 4.89212 5.49779L4.10045 9.24779Z" fill="#B3B3B3"/>
<path d="M16.632 19.6642H15.0654C13.7154 19.6642 13.457 18.8892 13.2904 18.3809L13.1237 17.8809C12.907 17.2476 12.882 17.1642 12.132 17.1642H7.86535C7.11535 17.1642 7.06535 17.3059 6.87369 17.8809L6.70702 18.3809C6.53202 18.8976 6.28202 19.6642 4.93202 19.6642H3.36535C2.70702 19.6642 2.07369 19.3892 1.63202 18.9059C1.19869 18.4309 0.990355 17.7976 1.04869 17.1642L1.51535 12.0892C1.64035 10.7142 2.00702 9.24756 4.68202 9.24756H15.3154C17.9904 9.24756 18.3487 10.7142 18.482 12.0892L18.9487 17.1642C19.007 17.7976 18.7987 18.4309 18.3654 18.9059C17.9237 19.3892 17.2904 19.6642 16.632 19.6642ZM7.86535 15.9142H12.132C13.6487 15.9142 14.007 16.5892 14.307 17.4726L14.482 17.9892C14.6237 18.4142 14.6237 18.4226 15.0737 18.4226H16.6404C16.9487 18.4226 17.2404 18.2976 17.4487 18.0726C17.6487 17.8559 17.7404 17.5809 17.7154 17.2892L17.2487 12.2142C17.1404 11.0892 17.007 10.5059 15.332 10.5059H4.68202C2.99869 10.5059 2.86535 11.0892 2.76535 12.2142L2.29869 17.2892C2.27369 17.5809 2.36535 17.8559 2.56535 18.0726C2.76535 18.2976 3.06535 18.4226 3.37369 18.4226H4.94035C5.39035 18.4226 5.39035 18.4142 5.53202 17.9976L5.69869 17.4892C5.90702 16.8226 6.21535 15.9142 7.86535 15.9142Z" fill="#B3B3B3"/>
<path d="M3.33333 7.99756H2.5C2.15833 7.99756 1.875 7.71423 1.875 7.37256C1.875 7.03089 2.15833 6.74756 2.5 6.74756H3.33333C3.675 6.74756 3.95833 7.03089 3.95833 7.37256C3.95833 7.71423 3.675 7.99756 3.33333 7.99756Z" fill="#B3B3B3"/>
<path d="M17.4993 7.99756H16.666C16.3243 7.99756 16.041 7.71423 16.041 7.37256C16.041 7.03089 16.3243 6.74756 16.666 6.74756H17.4993C17.841 6.74756 18.1243 7.03089 18.1243 7.37256C18.1243 7.71423 17.841 7.99756 17.4993 7.99756Z" fill="#B3B3B3"/>
<path d="M10 5.49772C9.65833 5.49772 9.375 5.21439 9.375 4.87272V3.20605C9.375 2.86439 9.65833 2.58105 10 2.58105C10.3417 2.58105 10.625 2.86439 10.625 3.20605V4.87272C10.625 5.21439 10.3417 5.49772 10 5.49772Z" fill="#B3B3B3"/>
<path d="M11.25 5.49756H8.75C8.40833 5.49756 8.125 5.21423 8.125 4.87256C8.125 4.53089 8.40833 4.24756 8.75 4.24756H11.25C11.5917 4.24756 11.875 4.53089 11.875 4.87256C11.875 5.21423 11.5917 5.49756 11.25 5.49756Z" fill="#B3B3B3"/>
<path d="M7.5 13.8311H5C4.65833 13.8311 4.375 13.5477 4.375 13.2061C4.375 12.8644 4.65833 12.5811 5 12.5811H7.5C7.84167 12.5811 8.125 12.8644 8.125 13.2061C8.125 13.5477 7.84167 13.8311 7.5 13.8311Z" fill="#B3B3B3"/>
<path d="M15 13.8311H12.5C12.1583 13.8311 11.875 13.5477 11.875 13.2061C11.875 12.8644 12.1583 12.5811 12.5 12.5811H15C15.3417 12.5811 15.625 12.8644 15.625 13.2061C15.625 13.5477 15.3417 13.8311 15 13.8311Z" fill="#B3B3B3"/>
</svg>
