<svg width="40" height="40" viewBox="0 0 40 40" fill="none" xmlns="http://www.w3.org/2000/svg">
<circle cx="20" cy="20" r="20" fill="#8C68CD" fill-opacity="0.14"/>
<path d="M26.6671 19.7917H13.3338C13.1421 19.7917 12.9671 19.7084 12.8505 19.5584C12.7338 19.4167 12.6838 19.2167 12.7255 19.0334L13.6671 14.5334C13.9755 13.0751 14.6004 11.7334 17.0754 11.7334H22.9338C25.4088 11.7334 26.0338 13.0834 26.3421 14.5334L27.2838 19.0417C27.3254 19.2251 27.2755 19.4167 27.1588 19.5667C27.0338 19.7084 26.8588 19.7917 26.6671 19.7917ZM14.1005 18.5417H25.8921L25.1088 14.7917C24.8754 13.7001 24.6005 12.9834 22.9255 12.9834H17.0754C15.4004 12.9834 15.1254 13.7001 14.8921 14.7917L14.1005 18.5417Z" fill="#8C68CD"/>
<path d="M26.632 28.9582H25.0654C23.7154 28.9582 23.457 28.1832 23.2904 27.6748L23.1237 27.1748C22.907 26.5415 22.882 26.4582 22.132 26.4582H17.8654C17.1154 26.4582 17.0654 26.5998 16.8737 27.1748L16.707 27.6748C16.532 28.1915 16.282 28.9582 14.932 28.9582H13.3654C12.707 28.9582 12.0737 28.6832 11.632 28.1998C11.1987 27.7248 10.9904 27.0915 11.0487 26.4582L11.5154 21.3832C11.6404 20.0082 12.007 18.5415 14.682 18.5415H25.3154C27.9904 18.5415 28.3487 20.0082 28.482 21.3832L28.9487 26.4582C29.007 27.0915 28.7987 27.7248 28.3654 28.1998C27.9237 28.6832 27.2904 28.9582 26.632 28.9582ZM17.8654 25.2082H22.132C23.6487 25.2082 24.007 25.8832 24.307 26.7665L24.482 27.2832C24.6237 27.7082 24.6237 27.7165 25.0737 27.7165H26.6404C26.9487 27.7165 27.2404 27.5915 27.4487 27.3665C27.6487 27.1498 27.7404 26.8748 27.7154 26.5832L27.2487 21.5082C27.1404 20.3832 27.007 19.7998 25.332 19.7998H14.682C12.9987 19.7998 12.8654 20.3832 12.7654 21.5082L12.2987 26.5832C12.2737 26.8748 12.3654 27.1498 12.5654 27.3665C12.7654 27.5915 13.0654 27.7165 13.3737 27.7165H14.9404C15.3904 27.7165 15.3904 27.7082 15.532 27.2915L15.6987 26.7832C15.907 26.1165 16.2154 25.2082 17.8654 25.2082Z" fill="#8C68CD"/>
<path d="M13.3333 17.2915H12.5C12.1583 17.2915 11.875 17.0082 11.875 16.6665C11.875 16.3248 12.1583 16.0415 12.5 16.0415H13.3333C13.675 16.0415 13.9583 16.3248 13.9583 16.6665C13.9583 17.0082 13.675 17.2915 13.3333 17.2915Z" fill="#8C68CD"/>
<path d="M27.4993 17.2915H26.666C26.3243 17.2915 26.041 17.0082 26.041 16.6665C26.041 16.3248 26.3243 16.0415 26.666 16.0415H27.4993C27.841 16.0415 28.1243 16.3248 28.1243 16.6665C28.1243 17.0082 27.841 17.2915 27.4993 17.2915Z" fill="#8C68CD"/>
<path d="M20 14.7917C19.6583 14.7917 19.375 14.5083 19.375 14.1667V12.5C19.375 12.1583 19.6583 11.875 20 11.875C20.3417 11.875 20.625 12.1583 20.625 12.5V14.1667C20.625 14.5083 20.3417 14.7917 20 14.7917Z" fill="#8C68CD"/>
<path d="M21.25 14.7915H18.75C18.4083 14.7915 18.125 14.5082 18.125 14.1665C18.125 13.8248 18.4083 13.5415 18.75 13.5415H21.25C21.5917 13.5415 21.875 13.8248 21.875 14.1665C21.875 14.5082 21.5917 14.7915 21.25 14.7915Z" fill="#8C68CD"/>
<path d="M17.5 23.125H15C14.6583 23.125 14.375 22.8417 14.375 22.5C14.375 22.1583 14.6583 21.875 15 21.875H17.5C17.8417 21.875 18.125 22.1583 18.125 22.5C18.125 22.8417 17.8417 23.125 17.5 23.125Z" fill="#8C68CD"/>
<path d="M25 23.125H22.5C22.1583 23.125 21.875 22.8417 21.875 22.5C21.875 22.1583 22.1583 21.875 22.5 21.875H25C25.3417 21.875 25.625 22.1583 25.625 22.5C25.625 22.8417 25.3417 23.125 25 23.125Z" fill="#8C68CD"/>
</svg>
