<svg width="30" height="31" viewBox="0 0 30 31" fill="none" xmlns="http://www.w3.org/2000/svg">
<circle opacity="0.5" cx="15" cy="15.207" r="14.75" fill="#777777" stroke="#777777" stroke-width="0.5"/>
<path d="M16.9848 10.6432C17.1369 10.6429 17.2842 10.6959 17.4013 10.7929C17.4672 10.8475 17.5217 10.9146 17.5616 10.9903C17.6015 11.066 17.6261 11.1489 17.634 11.2341C17.6418 11.3193 17.6328 11.4053 17.6074 11.487C17.582 11.5687 17.5407 11.6446 17.4859 11.7104L14.5706 15.1983L17.3818 18.6927C17.4358 18.7593 17.4762 18.8359 17.5006 18.9181C17.5249 19.0003 17.5328 19.0865 17.5237 19.1718C17.5147 19.2571 17.4888 19.3397 17.4477 19.4149C17.4066 19.4902 17.351 19.5566 17.2842 19.6103C17.2169 19.6695 17.138 19.7142 17.0526 19.7415C16.9672 19.7688 16.877 19.7782 16.7878 19.7691C16.6986 19.7599 16.6123 19.7324 16.5342 19.6883C16.4561 19.6441 16.388 19.5844 16.3341 19.5127L13.1911 15.6083C13.0954 15.4918 13.043 15.3458 13.043 15.1951C13.043 15.0443 13.0954 14.8983 13.1911 14.7819L16.4447 10.8775C16.51 10.7987 16.5929 10.7365 16.6868 10.6958C16.7806 10.6551 16.8827 10.6371 16.9848 10.6432Z" fill="#777777" stroke="white" stroke-width="0.4"/>
</svg>
