<svg width="24" height="25" viewBox="0 0 24 25" fill="none" xmlns="http://www.w3.org/2000/svg">
<path d="M21 8.1748H3C2.59 8.1748 2.25 7.8348 2.25 7.4248C2.25 7.0148 2.59 6.6748 3 6.6748H21C21.41 6.6748 21.75 7.0148 21.75 7.4248C21.75 7.8348 21.41 8.1748 21 8.1748Z" fill="#141C1F"/>
<path d="M21 13.1748H3C2.59 13.1748 2.25 12.8348 2.25 12.4248C2.25 12.0148 2.59 11.6748 3 11.6748H21C21.41 11.6748 21.75 12.0148 21.75 12.4248C21.75 12.8348 21.41 13.1748 21 13.1748Z" fill="#141C1F"/>
<path d="M21 18.1748H3C2.59 18.1748 2.25 17.8348 2.25 17.4248C2.25 17.0148 2.59 16.6748 3 16.6748H21C21.41 16.6748 21.75 17.0148 21.75 17.4248C21.75 17.8348 21.41 18.1748 21 18.1748Z" fill="#141C1F"/>
</svg>
