<svg width="100" height="27" viewBox="0 0 100 27" fill="none" xmlns="http://www.w3.org/2000/svg">
<g clip-path="url(#clip0_223_2932)">
<path d="M99.0447 15.6392H45.5412C45.416 15.6389 45.292 15.6634 45.1762 15.7111C45.0604 15.7588 44.9551 15.8289 44.8664 15.9173C44.7777 16.0057 44.7073 16.1107 44.6592 16.2263C44.611 16.3419 44.5862 16.4659 44.5859 16.5911V17.1853C44.5862 17.3105 44.611 17.4345 44.6592 17.5501C44.7073 17.6657 44.7777 17.7707 44.8664 17.8591C44.9551 17.9475 45.0604 18.0176 45.1762 18.0653C45.292 18.113 45.416 18.1375 45.5412 18.1372H99.0447C99.1699 18.1375 99.294 18.113 99.4098 18.0653C99.5255 18.0176 99.6308 17.9475 99.7195 17.8591C99.8082 17.7707 99.8786 17.6657 99.9268 17.5501C99.9749 17.4345 99.9998 17.3105 100 17.1853V16.5911C99.9998 16.4659 99.9749 16.3419 99.9268 16.2263C99.8786 16.1107 99.8082 16.0057 99.7195 15.9173C99.6308 15.8289 99.5255 15.7588 99.4098 15.7111C99.294 15.6634 99.1699 15.6389 99.0447 15.6392ZM58.7757 17.224H53.8191C53.7349 17.2267 53.6526 17.1993 53.5869 17.1467C53.5211 17.0941 53.4763 17.0197 53.4605 16.937C53.4536 16.889 53.4572 16.84 53.471 16.7934C53.4848 16.7469 53.5085 16.7038 53.5404 16.6673C53.5724 16.6308 53.6119 16.6016 53.6562 16.5817C53.7006 16.5619 53.7487 16.5519 53.7972 16.5524H58.7488C58.8329 16.5497 58.9153 16.5771 58.981 16.6297C59.0467 16.6823 59.0915 16.7567 59.1073 16.8394C59.1142 16.887 59.1107 16.9356 59.0972 16.9818C59.0838 17.028 59.0605 17.0707 59.0291 17.1072C58.9977 17.1437 58.9588 17.1729 58.9151 17.1931C58.8714 17.2133 58.8238 17.2238 58.7757 17.224ZM74.7843 17.224H69.8269C69.7428 17.2267 69.6606 17.1992 69.595 17.1466C69.5294 17.094 69.4848 17.0197 69.4692 16.937C69.4622 16.889 69.4658 16.84 69.4796 16.7934C69.4934 16.7469 69.5171 16.7038 69.5491 16.6673C69.581 16.6308 69.6205 16.6016 69.6649 16.5817C69.7092 16.5619 69.7573 16.5519 69.8058 16.5524H74.7624C74.8465 16.55 74.9287 16.5776 74.9943 16.6301C75.06 16.6827 75.1049 16.7568 75.121 16.8394C75.1279 16.8874 75.1244 16.9364 75.1106 16.983C75.0968 17.0296 75.0731 17.0726 75.0411 17.1091C75.0091 17.1457 74.9696 17.1748 74.9253 17.1947C74.881 17.2145 74.8329 17.2245 74.7843 17.224ZM90.7921 17.224H85.8355C85.7514 17.2266 85.6691 17.1991 85.6034 17.1465C85.5377 17.0939 85.4929 17.0196 85.4769 16.937C85.47 16.889 85.4736 16.84 85.4874 16.7934C85.5011 16.7469 85.5249 16.7038 85.5568 16.6673C85.5888 16.6308 85.6283 16.6016 85.6726 16.5817C85.717 16.5619 85.765 16.5519 85.8136 16.5524H90.7702C90.8543 16.55 90.9365 16.5776 91.0021 16.6301C91.0678 16.6827 91.1127 16.7568 91.1288 16.8394C91.1357 16.8874 91.1321 16.9364 91.1183 16.983C91.1046 17.0296 91.0809 17.0726 91.0489 17.1091C91.0169 17.1457 90.9774 17.1748 90.9331 17.1947C90.8887 17.2145 90.8407 17.2245 90.7921 17.224Z" fill="#262C71"/>
<path d="M13.0407 0.804761L13.4615 12.1985C13.4639 12.2794 13.4496 12.36 13.4195 12.4351C13.3894 12.5103 13.3441 12.5784 13.2865 12.6353C13.232 12.6918 13.1666 12.7364 13.0942 12.7665C13.0218 12.7967 12.944 12.8116 12.8656 12.8104H11.6031C11.5235 12.8111 11.4446 12.796 11.3709 12.7659C11.2972 12.7359 11.2302 12.6915 11.1739 12.6353C11.1142 12.5796 11.0669 12.5119 11.0353 12.4366C11.0037 12.3613 10.9884 12.2801 10.9904 12.1985C10.8854 8.91989 10.8271 7.23402 10.8153 7.14087C10.7917 6.82553 10.8091 6.00882 10.8675 4.69076H10.7656L7.808 9.99331C7.58356 10.3895 7.27999 10.5878 6.89731 10.5884H6.56569C6.19199 10.5884 5.88871 10.39 5.65585 9.99331L2.68053 4.69076H2.57448C2.62161 5.93925 2.64518 6.75595 2.64518 7.14087L2.47011 12.1985C2.46337 12.3641 2.39278 12.5206 2.27316 12.6353C2.21671 12.6914 2.14972 12.7357 2.07604 12.7658C2.00237 12.7958 1.92347 12.811 1.84391 12.8104H0.581399C0.502987 12.8117 0.425149 12.7968 0.352743 12.7667C0.280336 12.7366 0.214915 12.6918 0.160562 12.6353C0.102761 12.5792 0.0583616 12.5108 0.0306729 12.4352C0.00298415 12.3595 -0.00728031 12.2786 0.000644262 12.1985L0.404647 0.804761C0.404287 0.725677 0.420589 0.647403 0.452493 0.575039C0.484397 0.502675 0.531187 0.437843 0.589815 0.384766C0.709396 0.270166 0.86946 0.207533 1.03506 0.21054H2.11998C2.31349 0.216225 2.50143 0.276635 2.66201 0.384766C2.83276 0.48503 2.97233 0.630716 3.06518 0.805602L6.72224 7.15434L10.3802 0.804761C10.4833 0.631729 10.628 0.487102 10.801 0.383924C10.9564 0.278089 11.1383 0.217749 11.3262 0.209698H12.4288C12.5097 0.207471 12.5903 0.221772 12.6656 0.251727C12.7408 0.281683 12.8092 0.326664 12.8665 0.383924C12.9226 0.438562 12.9669 0.504055 12.9969 0.576408C13.0268 0.648762 13.0417 0.726459 13.0407 0.804761Z" fill="#262C71"/>
<path d="M28.3185 6.54569C28.3185 8.43497 27.6946 9.98645 26.4466 11.2001C25.1987 12.4138 23.6994 13.0207 21.9487 13.0207C20.1992 13.0207 18.6999 12.4138 17.4508 11.2001C16.2018 9.98645 15.5776 8.43497 15.5781 6.54569C15.5781 4.72543 16.1732 3.17928 17.3633 1.90723C18.5534 0.635183 20.0819 -0.000560744 21.9487 3.71108e-07C23.8391 3.71108e-07 25.3676 0.635744 26.5342 1.90723C27.7237 3.17984 28.3185 4.72599 28.3185 6.54569ZM25.8162 6.54569C25.8162 5.2742 25.4428 4.24736 24.696 3.46517C24.3533 3.0764 23.93 2.76696 23.4555 2.55838C22.9811 2.3498 22.4669 2.24708 21.9487 2.25737C20.8641 2.25737 19.9425 2.65997 19.1839 3.46517C18.4482 4.24736 18.0807 5.2742 18.0813 6.54569C18.0813 7.7706 18.4544 8.78061 19.2007 9.57571C19.9588 10.3686 20.8748 10.7653 21.9487 10.7658C23.0227 10.7664 23.9385 10.3697 24.696 9.57571C25.4428 8.78061 25.8162 7.7706 25.8162 6.54569Z" fill="#DC2326"/>
<path d="M30.1033 0.210341H39.6235C39.7018 0.209081 39.7796 0.223892 39.8519 0.253858C39.9243 0.283824 39.9898 0.328309 40.0443 0.384567C40.1007 0.439012 40.1454 0.50445 40.1755 0.576835C40.2056 0.649221 40.2205 0.727014 40.2194 0.805404V1.8516C40.22 1.93117 40.2048 2.01006 40.1748 2.08374C40.1447 2.15741 40.1004 2.22441 40.0443 2.28086C39.9911 2.33941 39.9261 2.38603 39.8535 2.41766C39.781 2.44928 39.7026 2.46519 39.6235 2.46434H36.0885V12.1983C36.0909 12.2792 36.0765 12.3598 36.0464 12.4349C36.0163 12.5101 35.971 12.5782 35.9134 12.6351C35.859 12.6916 35.7936 12.7364 35.7212 12.7665C35.6488 12.7966 35.571 12.8115 35.4925 12.8102H34.23C34.1516 12.8114 34.0738 12.7965 34.0014 12.7663C33.929 12.7362 33.8636 12.6916 33.8092 12.6351C33.7516 12.5782 33.7063 12.5101 33.6762 12.4349C33.646 12.3598 33.6317 12.2792 33.6341 12.1983V2.46771H30.0991C30.0174 2.46961 29.9361 2.45425 29.8607 2.42264C29.7853 2.39102 29.7174 2.34386 29.6614 2.28422C29.5485 2.17 29.4855 2.0156 29.4864 1.85497V0.804562C29.4854 0.7262 29.5004 0.648466 29.5306 0.576109C29.5607 0.503752 29.6052 0.438292 29.6614 0.383726C29.7193 0.326093 29.7884 0.280963 29.8644 0.251137C29.9404 0.22131 30.0217 0.207425 30.1033 0.210341Z" fill="#262C71"/>
<path d="M53.8685 6.54569C53.8685 8.43497 53.2442 9.98645 51.9957 11.2001C50.7473 12.4138 49.2485 13.0207 47.4995 13.0207C45.7494 13.0207 44.2501 12.4138 43.0016 11.2001C41.7531 9.98645 41.1289 8.43497 41.1289 6.54569C41.1289 4.72543 41.724 3.17928 42.9141 1.90723C44.1042 0.635183 45.6327 -0.000560744 47.4995 3.71108e-07C49.3888 3.71108e-07 50.9173 0.635744 52.085 1.90723C53.274 3.17984 53.8685 4.72599 53.8685 6.54569ZM51.3653 6.54569C51.3653 5.2742 50.9922 4.24736 50.2459 3.46517C49.903 3.07647 49.4795 2.76709 49.0049 2.55852C48.5304 2.34994 48.0161 2.24718 47.4978 2.25737C46.4132 2.25737 45.4916 2.65997 44.733 3.46517C43.9979 4.24736 43.6304 5.2742 43.6304 6.54569C43.6304 7.7706 44.0038 8.78061 44.7506 9.57571C45.5087 10.3686 46.4244 10.7653 47.4978 10.7658C48.5713 10.7664 49.4884 10.3688 50.2493 9.57319C50.9939 8.77977 51.3665 7.7706 51.367 6.54569H51.3653Z" fill="#DC2326"/>
<path d="M63.8272 8.17262L67.0475 12.0443C67.1348 12.1473 67.1841 12.2771 67.1872 12.4121C67.1872 12.6809 67.0239 12.815 66.6973 12.8144H65.7521C65.2505 12.8144 64.8858 12.7651 64.658 12.6663C64.4301 12.5676 64.1939 12.3487 63.9493 12.0098L61.0968 8.55895H58.9447V12.2337C58.9461 12.3108 58.9312 12.3872 58.901 12.4582C58.8709 12.5291 58.8261 12.5928 58.7696 12.6453C58.714 12.6997 58.6483 12.7426 58.576 12.7715C58.5038 12.8004 58.4266 12.8147 58.3488 12.8136H57.0863C57.0084 12.815 56.9311 12.8008 56.8588 12.7719C56.7866 12.743 56.7208 12.7 56.6654 12.6453C56.6088 12.593 56.5639 12.5292 56.5337 12.4583C56.5035 12.3873 56.4887 12.3108 56.4904 12.2337V0.804615C56.4892 0.726225 56.5041 0.648432 56.5343 0.576047C56.5644 0.503662 56.609 0.438224 56.6654 0.383779C56.7199 0.327481 56.7854 0.282968 56.8578 0.252999C56.9302 0.22303 57.0079 0.208243 57.0863 0.209553H61.5135C62.9606 0.209553 64.133 0.594478 65.0308 1.36433C65.9286 2.12296 66.3775 3.13801 66.3775 4.4095C66.3875 5.20476 66.1524 5.98383 65.7042 6.64078C65.2346 7.31736 64.5842 7.8482 63.8272 8.17262ZM58.9455 2.46776V6.2999H61.7979C62.4393 6.2999 62.9496 6.13156 63.3289 5.79489C63.7083 5.45822 63.8979 4.99755 63.8979 4.41287C63.8979 3.81809 63.7083 3.34563 63.3289 2.99549C62.9496 2.64535 62.4393 2.47029 61.7979 2.47029L58.9455 2.46776Z" fill="#262C71"/>
<path d="M72.0701 0.82242V12.2153C72.0694 12.3729 72.0065 12.5239 71.8951 12.6353C71.7836 12.7468 71.6327 12.8097 71.475 12.8104H70.2125C70.0549 12.8097 69.9039 12.7468 69.7925 12.6353C69.681 12.5239 69.6181 12.3729 69.6175 12.2153V0.82242C69.615 0.741346 69.6292 0.660625 69.6593 0.585313C69.6895 0.510002 69.7348 0.441721 69.7925 0.38475C69.8471 0.328491 69.9125 0.284006 69.9849 0.25404C70.0573 0.224074 70.135 0.209264 70.2134 0.210523H71.4759C71.5542 0.209264 71.632 0.224074 71.7044 0.25404C71.7767 0.284006 71.8422 0.328491 71.8967 0.38475C71.9542 0.441865 71.9992 0.51021 72.029 0.585515C72.0589 0.66082 72.0728 0.741467 72.0701 0.82242Z" fill="#262C71"/>
<path d="M84.1623 0.210434H85.4248C85.5057 0.208207 85.5863 0.222508 85.6615 0.252463C85.7368 0.282419 85.8051 0.3274 85.8624 0.38466C85.9187 0.439226 85.9632 0.504687 85.9933 0.577044C86.0234 0.649401 86.0384 0.727134 86.0375 0.805497V12.1984C86.0393 12.2793 86.0248 12.3598 85.9946 12.4349C85.9644 12.51 85.9194 12.5783 85.8621 12.6355C85.8048 12.6927 85.7365 12.7377 85.6613 12.7677C85.5862 12.7978 85.5057 12.8122 85.4248 12.8103H84.1446C84.0104 12.8184 83.8766 12.7882 83.7589 12.7232C83.6412 12.6583 83.5443 12.5612 83.4797 12.4433C83.386 12.3614 81.4958 9.71881 77.8093 4.51559H77.7041C77.7737 5.25065 77.8087 6.06736 77.8093 6.9657V12.1984C77.8112 12.2793 77.7966 12.3598 77.7664 12.4349C77.7363 12.51 77.6912 12.5783 77.6339 12.6355C77.5766 12.6927 77.5083 12.7377 77.4331 12.7677C77.358 12.7978 77.2775 12.8122 77.1966 12.8103H75.9341C75.8556 12.8116 75.7778 12.7967 75.7054 12.7666C75.633 12.7365 75.5676 12.6917 75.5132 12.6352C75.4556 12.5783 75.4103 12.5102 75.3802 12.435C75.3501 12.3599 75.3357 12.2793 75.3381 12.1984V0.804655C75.337 0.726265 75.3519 0.648472 75.3821 0.576087C75.4122 0.503702 75.4568 0.438263 75.5132 0.383819C75.5677 0.32756 75.6332 0.283075 75.7056 0.253109C75.778 0.223143 75.8557 0.208332 75.9341 0.209592H77.2117C77.3515 0.207107 77.4893 0.243379 77.6098 0.31439C77.7303 0.3854 77.8288 0.488377 77.8943 0.611912L83.5823 8.50428H83.6665C83.5958 7.03472 83.5607 6.28226 83.5613 6.24691V0.804655C83.5601 0.726265 83.5751 0.648472 83.6052 0.576087C83.6353 0.503702 83.68 0.438263 83.7364 0.383819C83.7915 0.327083 83.8579 0.282387 83.9312 0.252547C84.0045 0.222706 84.0831 0.208367 84.1623 0.210434Z" fill="#262C71"/>
<path d="M94.7337 5.96746H99.389C99.4699 5.96562 99.5504 5.98021 99.6255 6.01036C99.7007 6.04051 99.7689 6.08559 99.8261 6.14287C99.8833 6.20015 99.9283 6.26845 99.9583 6.34362C99.9884 6.41879 100.003 6.49927 100.001 6.5802V10.5882C100.001 10.903 99.9019 11.1421 99.7038 11.3054C98.3504 12.4489 96.7753 13.0207 94.9786 13.0207C93.0529 13.0207 91.4719 12.4035 90.2358 11.169C89.0103 9.93455 88.3979 8.38278 88.3984 6.51371C88.3984 4.60086 88.9876 3.0376 90.166 1.82391C91.3443 0.610213 92.8902 0.00224446 94.8036 0C96.6586 0 98.1694 0.617227 99.336 1.85168C99.6278 2.14402 99.651 2.42458 99.4058 2.69335L98.7232 3.45086C98.6712 3.51206 98.6068 3.5616 98.5342 3.59625C98.4617 3.63091 98.3827 3.64991 98.3024 3.65202C98.2243 3.656 98.1462 3.64301 98.0735 3.61395C98.0009 3.58489 97.9354 3.54045 97.8816 3.48368C96.9838 2.66726 95.9572 2.25877 94.8019 2.25821C94.2805 2.25003 93.7633 2.35204 93.2841 2.55756C92.8049 2.76309 92.3744 3.06749 92.021 3.45086C91.2618 4.24484 90.8825 5.25989 90.8831 6.49603C90.8831 7.72151 91.2683 8.74835 92.0387 9.57655C92.8197 10.3812 93.788 10.7835 94.9433 10.7835C95.8774 10.7879 96.7896 10.5004 97.5525 9.9612V8.22567H94.7354C94.5778 8.225 94.4268 8.1621 94.3154 8.05064C94.2039 7.93919 94.141 7.78822 94.1403 7.63061V6.5802C94.1378 6.49912 94.1521 6.4184 94.1822 6.34309C94.2123 6.26778 94.2577 6.1995 94.3154 6.14253C94.3695 6.08639 94.4345 6.0419 94.5065 6.0118C94.5784 5.98169 94.6557 5.96661 94.7337 5.96746Z" fill="#262C71"/>
<path d="M48.8417 20.5705H49.4595C49.499 20.5692 49.5383 20.576 49.575 20.5905C49.6118 20.605 49.6452 20.6268 49.6733 20.6546C49.7006 20.6815 49.7221 20.7136 49.7366 20.7491C49.751 20.7845 49.7581 20.8226 49.7574 20.8608V26.4445C49.7583 26.4841 49.7512 26.5235 49.7365 26.5604C49.7218 26.5972 49.6998 26.6306 49.6718 26.6587C49.6438 26.6868 49.6104 26.7089 49.5736 26.7237C49.5368 26.7385 49.4974 26.7458 49.4578 26.745H48.8307C48.765 26.7486 48.6996 26.7336 48.642 26.7018C48.5843 26.6699 48.5369 26.6225 48.505 26.5649C48.4596 26.5245 47.5337 25.2291 45.7275 22.6789H45.6761C45.7109 23.0391 45.7281 23.4394 45.7275 23.8799V26.4445C45.7287 26.4842 45.7217 26.5237 45.7071 26.5606C45.6924 26.5976 45.6704 26.6311 45.6424 26.6592C45.6143 26.6874 45.5808 26.7095 45.5439 26.7242C45.5071 26.739 45.4676 26.746 45.4279 26.745H44.8101C44.7718 26.7457 44.7338 26.7386 44.6983 26.7241C44.6628 26.7096 44.6307 26.6881 44.6039 26.6608C44.576 26.6326 44.5541 26.5991 44.5396 26.5622C44.5252 26.5253 44.5184 26.4858 44.5197 26.4462V20.8625C44.5199 20.7851 44.5508 20.711 44.6055 20.6562C44.6602 20.6015 44.7344 20.5707 44.8118 20.5705H45.438C45.5069 20.569 45.5749 20.5867 45.6343 20.6216C45.6938 20.6566 45.7424 20.7073 45.7746 20.7683L48.5622 24.6399H48.6052C48.5715 23.9195 48.5544 23.5505 48.5538 23.5331V20.8625C48.5541 20.7851 48.5849 20.711 48.6396 20.6562C48.6943 20.6015 48.7685 20.5707 48.8459 20.5705H48.8417Z" fill="#262C71"/>
<path d="M55.6426 20.8736V26.4572C55.6424 26.5345 55.6117 26.6085 55.5571 26.6632C55.5026 26.7179 55.4287 26.7488 55.3514 26.7493H54.7336C54.6562 26.749 54.5821 26.7182 54.5274 26.6635C54.4726 26.6088 54.4418 26.5346 54.4416 26.4572V20.8736C54.4402 20.8339 54.447 20.7945 54.4615 20.7576C54.476 20.7207 54.4978 20.6871 54.5257 20.6589C54.5526 20.6316 54.5847 20.6101 54.6202 20.5956C54.6556 20.5811 54.6937 20.5741 54.7319 20.5748H55.3497C55.3879 20.574 55.4258 20.5811 55.4611 20.5956C55.4965 20.6101 55.5284 20.6316 55.5551 20.6589C55.5836 20.6868 55.6061 20.7202 55.6211 20.7572C55.6362 20.7941 55.6435 20.8337 55.6426 20.8736Z" fill="#262C71"/>
<path d="M63.002 23.3926H65.2838C65.3234 23.3913 65.3629 23.3981 65.3998 23.4125C65.4367 23.427 65.4703 23.4489 65.4984 23.4768C65.5262 23.505 65.5479 23.5386 65.5624 23.5755C65.5768 23.6124 65.5837 23.6518 65.5826 23.6914V25.6558C65.5869 25.7217 65.576 25.7876 65.5505 25.8485C65.5251 25.9094 65.486 25.9636 65.4362 26.0068C64.7943 26.5596 63.9728 26.8592 63.1258 26.8493C62.182 26.8493 61.4071 26.5463 60.8011 25.9403C60.1951 25.3343 59.8949 24.5737 59.9005 23.6586C59.9005 22.7209 60.1892 21.9547 60.7665 21.3599C61.3439 20.7652 62.1014 20.4678 63.0391 20.4678C63.9481 20.4678 64.6885 20.7708 65.2602 21.3768C65.4033 21.5199 65.4148 21.6571 65.2948 21.7884L64.9581 22.1579C64.9324 22.1875 64.901 22.2115 64.8656 22.2285C64.8303 22.2454 64.7919 22.2549 64.7527 22.2563C64.7143 22.2579 64.676 22.2512 64.6405 22.2366C64.6049 22.2221 64.5729 22.2001 64.5465 22.1722C64.1396 21.7851 63.599 21.5701 63.0374 21.572C62.7817 21.5677 62.528 21.6174 62.2929 21.7179C62.0578 21.8185 61.8465 21.9675 61.673 22.1553C61.3016 22.5442 61.1158 23.0416 61.1158 23.6476C61.0997 24.2054 61.3031 24.7473 61.6823 25.1567C61.8654 25.3487 62.0866 25.5002 62.3317 25.6017C62.5768 25.7032 62.8404 25.7523 63.1056 25.7459C63.5633 25.7476 64.0101 25.6067 64.3841 25.3427V24.4994H63.002C62.9248 24.4987 62.8509 24.4677 62.7962 24.4131C62.7416 24.3585 62.7106 24.2846 62.71 24.2073V23.6931C62.7085 23.6534 62.7152 23.6139 62.7297 23.577C62.7442 23.5401 62.7661 23.5065 62.7941 23.4784C62.8209 23.4505 62.8532 23.4284 62.889 23.4136C62.9248 23.3988 62.9633 23.3917 63.002 23.3926Z" fill="#262C71"/>
<path d="M70.2932 20.5703H74.2819C74.3206 20.57 74.359 20.5779 74.3946 20.5934C74.4301 20.6089 74.462 20.6317 74.4881 20.6604C74.5426 20.7168 74.5728 20.7923 74.5723 20.8708V21.3851C74.572 21.4609 74.5417 21.5335 74.4881 21.5871C74.462 21.6157 74.4301 21.6385 74.3946 21.6541C74.359 21.6696 74.3206 21.6774 74.2819 21.6771H71.2064V23.0322H73.8913C73.9704 23.0341 74.0457 23.0664 74.1017 23.1224C74.1576 23.1783 74.1899 23.2536 74.1918 23.3327V23.847C74.1921 23.8857 74.1843 23.9241 74.1687 23.9597C74.1532 23.9952 74.1304 24.027 74.1018 24.0532C74.074 24.0804 74.041 24.1018 74.0049 24.1162C73.9688 24.1307 73.9302 24.1378 73.8913 24.1373H71.2064V25.6465H74.2861C74.363 25.6478 74.4362 25.6794 74.4899 25.7344C74.5437 25.7893 74.5736 25.8633 74.5731 25.9402V26.4545C74.5731 26.5318 74.5424 26.6059 74.4878 26.6607C74.4333 26.7154 74.3592 26.7463 74.2819 26.7465H70.2932C70.2159 26.7461 70.142 26.7151 70.0875 26.6604C70.0329 26.6057 70.0022 26.5317 70.002 26.4545V20.8733C70.0011 20.7948 70.0314 20.7192 70.0861 20.6629C70.112 20.6336 70.1439 20.6101 70.1796 20.5941C70.2153 20.5782 70.2541 20.57 70.2932 20.5703Z" fill="#262C71"/>
<path d="M82.5926 24.4731L84.1674 26.3686C84.2104 26.4189 84.2348 26.4825 84.2364 26.5487C84.2364 26.6809 84.1523 26.7465 83.9957 26.7465H83.5328C83.351 26.7564 83.1691 26.7316 82.9966 26.6733C82.855 26.5979 82.7352 26.4871 82.649 26.3518L81.2544 24.6608H80.1998V26.462C80.2008 26.4997 80.1938 26.5372 80.1793 26.5721C80.1648 26.6069 80.1431 26.6382 80.1156 26.664C80.0885 26.691 80.0564 26.7124 80.021 26.7269C79.9856 26.7413 79.9476 26.7486 79.9094 26.7482H79.2916C79.2535 26.7485 79.2157 26.7413 79.1804 26.7268C79.1451 26.7124 79.1131 26.691 79.0862 26.664C79.0587 26.6382 79.037 26.6069 79.0225 26.5721C79.008 26.5372 79.001 26.4997 79.0021 26.462V20.8624C79.0023 20.7851 79.033 20.7111 79.0875 20.6564C79.1421 20.6017 79.216 20.5708 79.2933 20.5703H81.4639C82.1726 20.5703 82.7472 20.7591 83.1877 21.1368C83.6282 21.5144 83.8484 22.0118 83.8484 22.629C83.8537 23.0192 83.7381 23.4013 83.5176 23.7232C83.2864 24.0556 82.9656 24.3156 82.5926 24.4731ZM80.1998 21.6771V23.5557H81.5978C81.9117 23.5557 82.1625 23.4716 82.3485 23.3032C82.4418 23.2176 82.5151 23.1125 82.5633 22.9955C82.6114 22.8784 82.6332 22.7521 82.6271 22.6257C82.6332 22.4967 82.6114 22.368 82.5634 22.2482C82.5153 22.1284 82.442 22.0203 82.3485 21.9313C82.1625 21.763 81.9117 21.6737 81.5978 21.6737L80.1998 21.6771Z" fill="#262C71"/>
<path d="M89.7227 20.8736V26.4572C89.7225 26.5346 89.6916 26.6088 89.6369 26.6635C89.5822 26.7182 89.508 26.749 89.4307 26.7493H88.8129C88.7356 26.7488 88.6617 26.7179 88.6071 26.6632C88.5526 26.6085 88.5219 26.5345 88.5216 26.4572V20.8736C88.5203 20.8339 88.5271 20.7945 88.5416 20.7576C88.5561 20.7207 88.5779 20.6871 88.6058 20.6589C88.6325 20.6316 88.6645 20.6101 88.6998 20.5956C88.7351 20.5811 88.773 20.574 88.8112 20.5748H89.429C89.4673 20.5741 89.5053 20.5811 89.5407 20.5956C89.5762 20.6101 89.6083 20.6316 89.6352 20.6589C89.6635 20.6869 89.6859 20.7204 89.7009 20.7573C89.716 20.7942 89.7234 20.8337 89.7227 20.8736Z" fill="#262C71"/>
<path d="M97.4833 20.8278L99.9797 26.4283C99.997 26.4631 100.004 26.5022 100 26.5409C99.9964 26.5796 99.9817 26.6164 99.9578 26.6471C99.9351 26.679 99.9049 26.7047 99.8697 26.7219C99.8346 26.7391 99.7957 26.7472 99.7567 26.7456H99.0446C98.8729 26.7456 98.7472 26.6541 98.6675 26.4712L98.1701 25.2786H95.5609L95.0635 26.4712C94.9793 26.6539 94.8573 26.7456 94.6856 26.7456H93.9735C93.9332 26.7479 93.893 26.7396 93.857 26.7214C93.8209 26.7032 93.7903 26.6759 93.7682 26.6421C93.7458 26.6098 93.7323 26.5721 93.7292 26.5329C93.7261 26.4938 93.7334 26.4545 93.7505 26.419L96.2469 20.827C96.2689 20.7496 96.3165 20.682 96.382 20.6352C96.4474 20.5884 96.5268 20.5652 96.6071 20.5694H97.1214C97.2021 20.5649 97.282 20.588 97.3478 20.635C97.4136 20.6819 97.4614 20.75 97.4833 20.8278ZM95.9683 24.2677H97.7602L97.3747 23.272C97.2945 23.0667 97.2145 22.8537 97.1349 22.6332C97.0552 22.4127 96.9935 22.2427 96.9497 22.1231C96.9076 22.0028 96.8798 21.9287 96.8655 21.9001L96.6854 22.3546C96.6293 22.5263 96.5171 22.8321 96.3487 23.272C96.2309 23.6098 96.1033 23.9417 95.9658 24.2677H95.9683Z" fill="#262C71"/>
</g>
<defs>
<clipPath id="clip0_223_2932">
<rect width="100" height="26.8494" fill="white"/>
</clipPath>
</defs>
</svg>
