<svg width="184" height="185" viewBox="0 0 184 185" fill="none" xmlns="http://www.w3.org/2000/svg">
<g filter="url(#filter0_d_163_6976)">
<rect x="72" y="40.207" width="40" height="40" rx="20" fill="#4DD4AC" shape-rendering="crispEdges"/>
<path d="M97.45 70.957C96.32 70.957 95.13 70.687 93.9 70.167C92.7 69.657 91.49 68.957 90.31 68.107C89.14 67.247 88.01 66.287 86.94 65.237C85.88 64.167 84.92 63.037 84.07 61.877C83.21 60.677 82.52 59.477 82.03 58.317C81.51 57.077 81.25 55.877 81.25 54.747C81.25 53.967 81.39 53.227 81.66 52.537C81.94 51.827 82.39 51.167 83 50.597C83.77 49.837 84.65 49.457 85.59 49.457C85.98 49.457 86.38 49.547 86.72 49.707C87.11 49.887 87.44 50.157 87.68 50.517L90 53.787C90.21 54.077 90.37 54.357 90.48 54.637C90.61 54.937 90.68 55.237 90.68 55.527C90.68 55.907 90.57 56.277 90.36 56.627C90.21 56.897 89.98 57.187 89.69 57.477L89.01 58.187C89.02 58.217 89.03 58.237 89.04 58.257C89.16 58.467 89.4 58.827 89.86 59.367C90.35 59.927 90.81 60.437 91.27 60.907C91.86 61.487 92.35 61.947 92.81 62.327C93.38 62.807 93.75 63.047 93.97 63.157L93.95 63.207L94.68 62.487C94.99 62.177 95.29 61.947 95.58 61.797C96.13 61.457 96.83 61.397 97.53 61.687C97.79 61.797 98.07 61.947 98.37 62.157L101.69 64.517C102.06 64.767 102.33 65.087 102.49 65.467C102.64 65.847 102.71 66.197 102.71 66.547C102.71 67.027 102.6 67.507 102.39 67.957C102.18 68.407 101.92 68.797 101.59 69.157C101.02 69.787 100.4 70.237 99.68 70.527C98.99 70.807 98.24 70.957 97.45 70.957ZM85.59 50.957C85.04 50.957 84.53 51.197 84.04 51.677C83.58 52.107 83.26 52.577 83.06 53.087C82.85 53.607 82.75 54.157 82.75 54.747C82.75 55.677 82.97 56.687 83.41 57.727C83.86 58.787 84.49 59.887 85.29 60.987C86.09 62.087 87 63.157 88 64.167C89 65.157 90.08 66.077 91.19 66.887C92.27 67.677 93.38 68.317 94.48 68.777C96.19 69.507 97.79 69.677 99.11 69.127C99.62 68.917 100.07 68.597 100.48 68.137C100.71 67.887 100.89 67.617 101.04 67.297C101.16 67.047 101.22 66.787 101.22 66.527C101.22 66.367 101.19 66.207 101.11 66.027C101.08 65.967 101.02 65.857 100.83 65.727L97.51 63.367C97.31 63.227 97.13 63.127 96.96 63.057C96.74 62.967 96.65 62.877 96.31 63.087C96.11 63.187 95.93 63.337 95.73 63.537L94.97 64.287C94.58 64.667 93.98 64.757 93.52 64.587L93.25 64.467C92.84 64.247 92.36 63.907 91.83 63.457C91.35 63.047 90.83 62.567 90.2 61.947C89.71 61.447 89.22 60.917 88.71 60.327C88.24 59.777 87.9 59.307 87.69 58.917L87.57 58.617C87.51 58.387 87.49 58.257 87.49 58.117C87.49 57.757 87.62 57.437 87.87 57.187L88.62 56.407C88.82 56.207 88.97 56.017 89.07 55.847C89.15 55.717 89.18 55.607 89.18 55.507C89.18 55.427 89.15 55.307 89.1 55.187C89.03 55.027 88.92 54.847 88.78 54.657L86.46 51.377C86.36 51.237 86.24 51.137 86.09 51.067C85.93 50.997 85.76 50.957 85.59 50.957ZM93.95 63.217L93.79 63.897L94.06 63.197C94.01 63.187 93.97 63.197 93.95 63.217Z" fill="white"/>
</g>
<defs>
<filter id="filter0_d_163_6976" x="0" y="0.207031" width="184" height="184" filterUnits="userSpaceOnUse" color-interpolation-filters="sRGB">
<feFlood flood-opacity="0" result="BackgroundImageFix"/>
<feColorMatrix in="SourceAlpha" type="matrix" values="0 0 0 0 0 0 0 0 0 0 0 0 0 0 0 0 0 0 127 0" result="hardAlpha"/>
<feOffset dy="32"/>
<feGaussianBlur stdDeviation="36"/>
<feComposite in2="hardAlpha" operator="out"/>
<feColorMatrix type="matrix" values="0 0 0 0 0.00784314 0 0 0 0 0.764706 0 0 0 0 0.603922 0 0 0 0.25 0"/>
<feBlend mode="normal" in2="BackgroundImageFix" result="effect1_dropShadow_163_6976"/>
<feBlend mode="normal" in="SourceGraphic" in2="effect1_dropShadow_163_6976" result="shape"/>
</filter>
</defs>
</svg>
