<svg width="24" height="25" viewBox="0 0 24 25" fill="none" xmlns="http://www.w3.org/2000/svg">
<path fill-rule="evenodd" clip-rule="evenodd" d="M7.60045 2.38867H16.399C19.3871 2.38867 21.8181 4.81967 21.818 7.8076V16.6061C21.818 19.594 19.3871 22.025 16.399 22.025H7.60045C4.61252 22.025 2.18164 19.5942 2.18164 16.6061V7.8076C2.18164 4.81967 4.61252 2.38867 7.60045 2.38867ZM16.3991 20.2828C18.4265 20.2828 20.0759 18.6335 20.0759 16.6061H20.0758V7.8076C20.0758 5.78034 18.4263 4.1309 16.399 4.1309H7.60045C5.57319 4.1309 3.92387 5.78034 3.92387 7.8076V16.6061C3.92387 18.6335 5.57319 20.2829 7.60045 20.2828H16.3991ZM6.85696 12.207C6.85696 9.37109 9.16401 7.064 11.9998 7.064C14.8356 7.064 17.1427 9.37109 17.1427 12.207C17.1427 15.0427 14.8356 17.3497 11.9998 17.3497C9.16401 17.3497 6.85696 15.0427 6.85696 12.207ZM8.6278 12.2069C8.6278 14.0662 10.1406 15.5787 11.9998 15.5787C13.8591 15.5787 15.3718 14.0662 15.3718 12.2069C15.3718 10.3474 13.8592 8.83475 11.9998 8.83475C10.1404 8.83475 8.6278 10.3474 8.6278 12.2069Z" fill="#262C71"/>
<mask id="mask0_163_7001" style="mask-type:luminance" maskUnits="userSpaceOnUse" x="2" y="2" width="20" height="21">
<path fill-rule="evenodd" clip-rule="evenodd" d="M7.60045 2.38867H16.399C19.3871 2.38867 21.8181 4.81967 21.818 7.8076V16.6061C21.818 19.594 19.3871 22.025 16.399 22.025H7.60045C4.61252 22.025 2.18164 19.5942 2.18164 16.6061V7.8076C2.18164 4.81967 4.61252 2.38867 7.60045 2.38867ZM16.3991 20.2828C18.4265 20.2828 20.0759 18.6335 20.0759 16.6061H20.0758V7.8076C20.0758 5.78034 18.4263 4.1309 16.399 4.1309H7.60045C5.57319 4.1309 3.92387 5.78034 3.92387 7.8076V16.6061C3.92387 18.6335 5.57319 20.2829 7.60045 20.2828H16.3991ZM6.85696 12.207C6.85696 9.37109 9.16401 7.064 11.9998 7.064C14.8356 7.064 17.1427 9.37109 17.1427 12.207C17.1427 15.0427 14.8356 17.3497 11.9998 17.3497C9.16401 17.3497 6.85696 15.0427 6.85696 12.207ZM8.6278 12.2069C8.6278 14.0662 10.1406 15.5787 11.9998 15.5787C13.8591 15.5787 15.3718 14.0662 15.3718 12.2069C15.3718 10.3474 13.8592 8.83475 11.9998 8.83475C10.1404 8.83475 8.6278 10.3474 8.6278 12.2069Z" fill="white"/>
</mask>
<g mask="url(#mask0_163_7001)">
</g>
</svg>
