<svg width="24" height="25" viewBox="0 0 24 25" fill="none" xmlns="http://www.w3.org/2000/svg">
<path fill-rule="evenodd" clip-rule="evenodd" d="M21.8189 6.35265C21.1363 6.6551 20.4039 6.86022 19.6344 6.9518C20.4201 6.48128 21.0216 5.73498 21.3066 4.84843C20.5696 5.28416 19.756 5.60055 18.8892 5.77207C18.195 5.03155 17.2077 4.57031 16.1125 4.57031C14.0115 4.57031 12.308 6.27386 12.308 8.37374C12.308 8.67156 12.3416 8.96243 12.4065 9.24059C9.24507 9.0818 6.44177 7.56716 4.56556 5.26562C4.23759 5.82652 4.05101 6.4801 4.05101 7.17777C4.05101 8.49774 4.72316 9.6624 5.74298 10.3438C5.1195 10.3229 4.5331 10.1514 4.01974 9.86634V9.91386C4.01974 11.7565 5.33159 13.2943 7.07104 13.6443C6.75235 13.73 6.41629 13.7776 6.06862 13.7776C5.82295 13.7776 5.58538 13.7532 5.35244 13.7069C5.83683 15.2192 7.24141 16.3189 8.90556 16.3491C7.60413 17.3689 5.96316 17.975 4.18083 17.975C3.87374 17.975 3.57126 17.9565 3.27344 17.9229C4.95729 19.0041 6.95635 19.6345 9.10489 19.6345C16.1033 19.6345 19.9288 13.8378 19.9288 8.81065L19.916 8.31813C20.6635 7.78501 21.3101 7.11519 21.8189 6.35265Z" fill="#262C71"/>
<mask id="mask0_163_7000" style="mask-type:luminance" maskUnits="userSpaceOnUse" x="3" y="4" width="19" height="16">
<path fill-rule="evenodd" clip-rule="evenodd" d="M21.8189 6.35265C21.1363 6.6551 20.4039 6.86022 19.6344 6.9518C20.4201 6.48128 21.0216 5.73498 21.3066 4.84843C20.5696 5.28416 19.756 5.60055 18.8892 5.77207C18.195 5.03155 17.2077 4.57031 16.1125 4.57031C14.0115 4.57031 12.308 6.27386 12.308 8.37374C12.308 8.67156 12.3416 8.96243 12.4065 9.24059C9.24507 9.0818 6.44177 7.56716 4.56556 5.26562C4.23759 5.82652 4.05101 6.4801 4.05101 7.17777C4.05101 8.49774 4.72316 9.6624 5.74298 10.3438C5.1195 10.3229 4.5331 10.1514 4.01974 9.86634V9.91386C4.01974 11.7565 5.33159 13.2943 7.07104 13.6443C6.75235 13.73 6.41629 13.7776 6.06862 13.7776C5.82295 13.7776 5.58538 13.7532 5.35244 13.7069C5.83683 15.2192 7.24141 16.3189 8.90556 16.3491C7.60413 17.3689 5.96316 17.975 4.18083 17.975C3.87374 17.975 3.57126 17.9565 3.27344 17.9229C4.95729 19.0041 6.95635 19.6345 9.10489 19.6345C16.1033 19.6345 19.9288 13.8378 19.9288 8.81065L19.916 8.31813C20.6635 7.78501 21.3101 7.11519 21.8189 6.35265Z" fill="white"/>
</mask>
<g mask="url(#mask0_163_7000)">
</g>
</svg>
