<svg width="183" height="185" viewBox="0 0 183 185" fill="none" xmlns="http://www.w3.org/2000/svg">
<g filter="url(#filter0_d_163_6987)">
<rect x="72" y="40.207" width="39" height="40" rx="19.5" fill="#F46036" shape-rendering="crispEdges"/>
<path d="M98.9463 59.457H95.0746C93.1483 59.457 92.2188 58.567 92.2188 56.727V52.187C92.2188 50.347 93.1579 49.457 95.0746 49.457H98.9463C100.873 49.457 101.802 50.347 101.802 52.187V56.717C101.802 58.567 100.863 59.457 98.9463 59.457ZM95.0746 50.957C93.7904 50.957 93.6562 51.337 93.6562 52.187V56.717C93.6562 57.577 93.7904 57.947 95.0746 57.947H98.9463C100.23 57.947 100.365 57.567 100.365 56.717V52.187C100.365 51.327 100.23 50.957 98.9463 50.957H95.0746Z" fill="white"/>
<path d="M98.9463 70.957H95.0746C93.1483 70.957 92.2188 69.977 92.2188 67.977V63.937C92.2188 61.927 93.1579 60.957 95.0746 60.957H98.9463C100.873 60.957 101.802 61.937 101.802 63.937V67.977C101.802 69.977 100.863 70.957 98.9463 70.957ZM95.0746 62.457C93.9437 62.457 93.6562 62.757 93.6562 63.937V67.977C93.6562 69.157 93.9437 69.457 95.0746 69.457H98.9463C100.077 69.457 100.365 69.157 100.365 67.977V63.937C100.365 62.757 100.077 62.457 98.9463 62.457H95.0746Z" fill="white"/>
<path d="M87.9267 59.457H84.0551C82.1288 59.457 81.1992 58.567 81.1992 56.727V52.187C81.1992 50.347 82.1384 49.457 84.0551 49.457H87.9267C89.853 49.457 90.7826 50.347 90.7826 52.187V56.717C90.7826 58.567 89.8434 59.457 87.9267 59.457ZM84.0551 50.957C82.7709 50.957 82.6367 51.337 82.6367 52.187V56.717C82.6367 57.577 82.7709 57.947 84.0551 57.947H87.9267C89.2109 57.947 89.3451 57.567 89.3451 56.717V52.187C89.3451 51.327 89.2109 50.957 87.9267 50.957H84.0551Z" fill="white"/>
<path d="M87.9267 70.957H84.0551C82.1288 70.957 81.1992 69.977 81.1992 67.977V63.937C81.1992 61.927 82.1384 60.957 84.0551 60.957H87.9267C89.853 60.957 90.7826 61.937 90.7826 63.937V67.977C90.7826 69.977 89.8434 70.957 87.9267 70.957ZM84.0551 62.457C82.9242 62.457 82.6367 62.757 82.6367 63.937V67.977C82.6367 69.157 82.9242 69.457 84.0551 69.457H87.9267C89.0576 69.457 89.3451 69.157 89.3451 67.977V63.937C89.3451 62.757 89.0576 62.457 87.9267 62.457H84.0551Z" fill="white"/>
</g>
<defs>
<filter id="filter0_d_163_6987" x="0" y="0.207031" width="183" height="184" filterUnits="userSpaceOnUse" color-interpolation-filters="sRGB">
<feFlood flood-opacity="0" result="BackgroundImageFix"/>
<feColorMatrix in="SourceAlpha" type="matrix" values="0 0 0 0 0 0 0 0 0 0 0 0 0 0 0 0 0 0 127 0" result="hardAlpha"/>
<feOffset dy="32"/>
<feGaussianBlur stdDeviation="36"/>
<feComposite in2="hardAlpha" operator="out"/>
<feColorMatrix type="matrix" values="0 0 0 0 0.00784314 0 0 0 0 0.764706 0 0 0 0 0.603922 0 0 0 0.25 0"/>
<feBlend mode="normal" in2="BackgroundImageFix" result="effect1_dropShadow_163_6987"/>
<feBlend mode="normal" in="SourceGraphic" in2="effect1_dropShadow_163_6987" result="shape"/>
</filter>
</defs>
</svg>
