<svg width="24" height="25" viewBox="0 0 24 25" fill="none" xmlns="http://www.w3.org/2000/svg">
<path d="M19.2 3.20703H4.8C3.81 3.20703 3 4.01703 3 5.00703V19.407C3 20.397 3.81 21.207 4.8 21.207H19.2C20.19 21.207 21 20.397 21 19.407V5.00703C21 4.01703 20.19 3.20703 19.2 3.20703ZM8.4 18.507H5.7V10.407H8.4V18.507ZM7.05 8.87703C6.15 8.87703 5.43 8.15703 5.43 7.25703C5.43 6.35703 6.15 5.63703 7.05 5.63703C7.95 5.63703 8.67 6.35703 8.67 7.25703C8.67 8.15703 7.95 8.87703 7.05 8.87703ZM18.3 18.507H15.6V13.737C15.6 13.0171 14.97 12.387 14.25 12.387C13.53 12.387 12.9 13.0171 12.9 13.737V18.507H10.2V10.407H12.9V11.487C13.35 10.767 14.34 10.227 15.15 10.227C16.86 10.227 18.3 11.667 18.3 13.377V18.507Z" fill="#262C71"/>
</svg>
