<svg width="184" height="184" viewBox="0 0 184 184" fill="none" xmlns="http://www.w3.org/2000/svg">
<g filter="url(#filter0_d_163_6970)">
<rect x="72" y="40.207" width="40" height="39" rx="19.5" fill="#FD9843" shape-rendering="crispEdges"/>
<path d="M92.5007 70.9567H84.0807C82.5107 70.9567 81.2207 69.6967 81.2207 68.1367V53.2967C81.2207 51.7667 81.7907 50.5767 82.8307 49.9267C83.8807 49.2667 85.2407 49.2867 86.6507 49.9867L91.0907 52.1667C92.3007 52.7667 93.2507 54.2767 93.2507 55.6167V70.2067C93.2507 70.6167 92.9107 70.9567 92.5007 70.9567ZM84.5607 50.9567C84.2107 50.9567 83.8907 51.0367 83.6207 51.2067C83.0407 51.5667 82.7207 52.3167 82.7207 53.2967V68.1367C82.7207 68.8667 83.3307 69.4567 84.0807 69.4567H91.7507V55.6167C91.7507 54.8467 91.1307 53.8567 90.4207 53.5167L85.9807 51.3367C85.4707 51.0867 84.9907 50.9567 84.5607 50.9567Z" fill="#F0FAFE"/>
<path d="M98.81 70.9573H92.5C92.09 70.9573 91.75 70.6173 91.75 70.2073V58.6273C91.75 58.3973 91.85 58.1873 92.03 58.0473C92.21 57.9073 92.43 57.8473 92.66 57.8973L93.13 57.9973L99.67 59.4573C101.66 59.8973 102.66 61.0673 102.72 63.0573C102.73 63.0573 102.73 63.1573 102.73 63.2673V67.0473C102.72 69.6073 101.37 70.9573 98.81 70.9573ZM93.25 69.4573H98.81C100.57 69.4573 101.22 68.8073 101.22 67.0473V63.1873C101.17 61.8173 100.65 61.2073 99.34 60.9173L93.25 59.5573V69.4573Z" fill="#F0FAFE"/>
<path d="M88.97 57.957H85.5C85.09 57.957 84.75 57.617 84.75 57.207C84.75 56.797 85.09 56.457 85.5 56.457H88.97C89.38 56.457 89.72 56.797 89.72 57.207C89.72 57.617 89.39 57.957 88.97 57.957Z" fill="#F0FAFE"/>
<path d="M88.97 61.957H85.5C85.09 61.957 84.75 61.617 84.75 61.207C84.75 60.797 85.09 60.457 85.5 60.457H88.97C89.38 60.457 89.72 60.797 89.72 61.207C89.72 61.617 89.39 61.957 88.97 61.957Z" fill="#F0FAFE"/>
<path d="M95.2207 65.9575C93.5707 65.9575 92.2207 64.6075 92.2207 62.9575V58.7275C92.2207 58.4975 92.3207 58.2875 92.5007 58.1375C92.6807 57.9875 92.9107 57.9375 93.1307 57.9875L97.6307 58.9975C97.9707 59.0775 98.2207 59.3775 98.2207 59.7275V62.9475C98.2207 64.6075 96.8807 65.9575 95.2207 65.9575ZM93.7207 59.6675V62.9575C93.7207 63.7875 94.3907 64.4575 95.2207 64.4575C96.0507 64.4575 96.7207 63.7875 96.7207 62.9575V60.3375L93.7207 59.6675Z" fill="#F0FAFE"/>
<path d="M99.7207 65.9567C98.0707 65.9567 96.7207 64.6067 96.7207 62.9567V59.7367C96.7207 59.5067 96.8207 59.2967 97.0007 59.1567C97.1807 59.0167 97.4107 58.9567 97.6307 59.0067L99.6607 59.4567C101.651 59.8967 102.651 61.0667 102.711 63.0567C102.711 63.0767 102.711 63.0967 102.711 63.1167C102.631 64.7067 101.321 65.9567 99.7207 65.9567ZM98.2207 60.6667V62.9567C98.2207 63.7867 98.8907 64.4567 99.7207 64.4567C100.511 64.4567 101.161 63.8467 101.211 63.0667C101.161 61.8067 100.641 61.2067 99.3407 60.9167L98.2207 60.6667Z" fill="#F0FAFE"/>
</g>
<defs>
<filter id="filter0_d_163_6970" x="0" y="0.207031" width="184" height="183" filterUnits="userSpaceOnUse" color-interpolation-filters="sRGB">
<feFlood flood-opacity="0" result="BackgroundImageFix"/>
<feColorMatrix in="SourceAlpha" type="matrix" values="0 0 0 0 0 0 0 0 0 0 0 0 0 0 0 0 0 0 127 0" result="hardAlpha"/>
<feOffset dy="32"/>
<feGaussianBlur stdDeviation="36"/>
<feComposite in2="hardAlpha" operator="out"/>
<feColorMatrix type="matrix" values="0 0 0 0 0.964706 0 0 0 0 0.682353 0 0 0 0 0.176471 0 0 0 0.25 0"/>
<feBlend mode="normal" in2="BackgroundImageFix" result="effect1_dropShadow_163_6970"/>
<feBlend mode="normal" in="SourceGraphic" in2="effect1_dropShadow_163_6970" result="shape"/>
</filter>
</defs>
</svg>
