<svg width="184" height="184" viewBox="0 0 184 184" fill="none" xmlns="http://www.w3.org/2000/svg">
<g filter="url(#filter0_d_163_6981)">
<rect x="72" y="40.207" width="40" height="39" rx="19.5" fill="#2E63EA" shape-rendering="crispEdges"/>
<path d="M97 69.457H87C83.35 69.457 81.25 67.357 81.25 63.707V56.707C81.25 53.057 83.35 50.957 87 50.957H97C100.65 50.957 102.75 53.057 102.75 56.707V63.707C102.75 67.357 100.65 69.457 97 69.457ZM87 52.457C84.14 52.457 82.75 53.847 82.75 56.707V63.707C82.75 66.567 84.14 67.957 87 67.957H97C99.86 67.957 101.25 66.567 101.25 63.707V56.707C101.25 53.847 99.86 52.457 97 52.457H87Z" fill="white"/>
<path d="M91.9988 61.077C91.1588 61.077 90.3088 60.817 89.6588 60.287L86.5288 57.787C86.2088 57.527 86.1488 57.057 86.4088 56.737C86.6688 56.417 87.1388 56.357 87.4588 56.617L90.5888 59.117C91.3488 59.727 92.6388 59.727 93.3988 59.117L96.5288 56.617C96.8488 56.357 97.3288 56.407 97.5788 56.737C97.8388 57.057 97.7888 57.537 97.4588 57.787L94.3288 60.287C93.6888 60.817 92.8388 61.077 91.9988 61.077Z" fill="white"/>
</g>
<defs>
<filter id="filter0_d_163_6981" x="0" y="0.207031" width="184" height="183" filterUnits="userSpaceOnUse" color-interpolation-filters="sRGB">
<feFlood flood-opacity="0" result="BackgroundImageFix"/>
<feColorMatrix in="SourceAlpha" type="matrix" values="0 0 0 0 0 0 0 0 0 0 0 0 0 0 0 0 0 0 127 0" result="hardAlpha"/>
<feOffset dy="32"/>
<feGaussianBlur stdDeviation="36"/>
<feComposite in2="hardAlpha" operator="out"/>
<feColorMatrix type="matrix" values="0 0 0 0 0.180392 0 0 0 0 0.388235 0 0 0 0 0.917647 0 0 0 0.25 0"/>
<feBlend mode="normal" in2="BackgroundImageFix" result="effect1_dropShadow_163_6981"/>
<feBlend mode="normal" in="SourceGraphic" in2="effect1_dropShadow_163_6981" result="shape"/>
</filter>
</defs>
</svg>
