<svg width="24" height="25" viewBox="0 0 24 25" fill="none" xmlns="http://www.w3.org/2000/svg">
<path fill-rule="evenodd" clip-rule="evenodd" d="M13.6352 20.934V12.9728H16.3585L16.7671 9.86922H13.6352V7.88805C13.6352 6.98977 13.8885 6.37761 15.2032 6.37761L16.8774 6.37694V3.601C16.5878 3.5641 15.594 3.47949 14.4373 3.47949C12.0219 3.47949 10.3683 4.92557 10.3683 7.58067V9.86922H7.63672V12.9728H10.3683V20.934H13.6352Z" fill="#262C71"/>
<mask id="mask0_163_6999" style="mask-type:luminance" maskUnits="userSpaceOnUse" x="7" y="3" width="10" height="18">
<path fill-rule="evenodd" clip-rule="evenodd" d="M13.6352 20.934V12.9728H16.3585L16.7671 9.86922H13.6352V7.88805C13.6352 6.98977 13.8885 6.37761 15.2032 6.37761L16.8774 6.37694V3.601C16.5878 3.5641 15.594 3.47949 14.4373 3.47949C12.0219 3.47949 10.3683 4.92557 10.3683 7.58067V9.86922H7.63672V12.9728H10.3683V20.934H13.6352Z" fill="white"/>
</mask>
<g mask="url(#mask0_163_6999)">
</g>
</svg>
