<svg width="30" height="31" viewBox="0 0 30 31" fill="none" xmlns="http://www.w3.org/2000/svg">
<circle cx="15" cy="15" r="14.65" transform="matrix(-1 0 0 1 30 0.207031)" fill="#F0FAFE" stroke="#262C71" stroke-width="0.7"/>
<path d="M13.0152 10.6432C12.8631 10.6429 12.7158 10.6959 12.5987 10.7929C12.5328 10.8475 12.4783 10.9146 12.4384 10.9903C12.3985 11.066 12.3739 11.1489 12.366 11.2341C12.3582 11.3193 12.3672 11.4053 12.3926 11.487C12.418 11.5687 12.4593 11.6446 12.5141 11.7104L15.4294 15.1983L12.6182 18.6927C12.5642 18.7593 12.5238 18.8359 12.4994 18.9181C12.4751 19.0003 12.4672 19.0865 12.4763 19.1718C12.4853 19.2571 12.5112 19.3397 12.5523 19.4149C12.5934 19.4902 12.649 19.5566 12.7158 19.6103C12.7831 19.6695 12.862 19.7142 12.9474 19.7415C13.0328 19.7688 13.123 19.7782 13.2122 19.7691C13.3014 19.7599 13.3877 19.7324 13.4658 19.6883C13.5439 19.6441 13.612 19.5844 13.6659 19.5127L16.8089 15.6083C16.9046 15.4918 16.957 15.3458 16.957 15.1951C16.957 15.0443 16.9046 14.8983 16.8089 14.7819L13.5553 10.8775C13.49 10.7987 13.4071 10.7365 13.3132 10.6958C13.2194 10.6551 13.1173 10.6371 13.0152 10.6432Z" fill="#F0FAFE" stroke="#262C71" stroke-width="0.4"/>
</svg>
